<?xml version="1.0" encoding="UTF-8"?>
<svg id="Layer_1" xmlns="http://www.w3.org/2000/svg" viewBox="0 0 98 98">
  <defs>
    <style>
      .cls-1 {
        fill: #fff;
      }
    </style>
  </defs>
  <path class="cls-1" d="M49,93.53c-24.4,0-44.26-19.85-44.26-44.26S24.6,5.01,49,5.01s44.26,19.85,44.26,44.26-19.85,44.26-44.26,44.26ZM49,7.58C26.01,7.58,7.31,26.28,7.31,49.27s18.7,41.69,41.69,41.69,41.69-18.7,41.69-41.69S71.99,7.58,49,7.58Z"/>
  <g>
    <path class="cls-1" d="M29.28,37.66h1.5v6.93h-1.5v-1c-.56.79-1.37,1.18-2.42,1.18-.95,0-1.76-.35-2.44-1.06-.67-.71-1.01-1.57-1.01-2.58s.34-1.89,1.01-2.59c.67-.7,1.49-1.05,2.44-1.05,1.05,0,1.86.39,2.42,1.16v-.98ZM25.53,42.71c.42.42.94.63,1.57.63s1.15-.21,1.57-.63c.42-.42.62-.95.62-1.59s-.21-1.17-.62-1.59-.94-.63-1.57-.63-1.15.21-1.57.63-.62.95-.62,1.59.21,1.17.62,1.59Z"/>
    <path class="cls-1" d="M40.09,37.48c.78,0,1.42.25,1.9.76s.72,1.19.72,2.05v4.3h-1.5v-4.2c0-.48-.12-.85-.36-1.12-.24-.26-.57-.4-.98-.4-.46,0-.83.15-1.1.46-.27.31-.41.76-.41,1.37v3.88h-1.5v-4.2c0-.48-.11-.85-.34-1.12-.23-.26-.55-.4-.96-.4-.45,0-.82.15-1.11.46s-.43.76-.43,1.36v3.88h-1.5v-6.93h1.5v.83c.44-.67,1.1-1.01,1.98-1.01s1.54.37,1.97,1.1c.46-.73,1.17-1.1,2.12-1.1Z"/>
    <path class="cls-1" d="M45.49,41.76c.11.53.36.93.76,1.21.4.28.88.42,1.46.42.79,0,1.39-.29,1.79-.86l1.23.72c-.68,1.01-1.69,1.51-3.03,1.51-1.13,0-2.04-.34-2.73-1.03-.69-.69-1.04-1.56-1.04-2.61s.34-1.9,1.03-2.6c.68-.7,1.56-1.05,2.63-1.05,1.02,0,1.85.36,2.5,1.07.65.71.98,1.58.98,2.59,0,.16-.02.37-.06.62h-5.51ZM45.48,40.54h4.07c-.1-.56-.34-.99-.7-1.27-.37-.29-.79-.43-1.28-.43-.55,0-1.02.15-1.39.46-.37.3-.61.72-.71,1.25ZM49.44,34.85l-1.47,1.87h-1.44l1.11-1.87h1.8Z"/>
    <path class="cls-1" d="M53.88,38.83c.38-.86,1.09-1.29,2.13-1.29v1.62c-.57-.04-1.07.1-1.5.41-.42.31-.64.82-.64,1.53v3.49h-1.5v-6.93h1.5v1.16Z"/>
    <path class="cls-1" d="M58.54,36.34c-.19.19-.41.28-.67.28s-.48-.09-.67-.28c-.19-.19-.28-.41-.28-.67s.09-.48.28-.67.41-.28.68-.28.49.09.68.28.28.41.28.67-.09.48-.28.67ZM57.12,44.59v-6.93h1.5v6.93h-1.5Z"/>
    <path class="cls-1" d="M63.62,44.77c-1.04,0-1.91-.35-2.61-1.05-.7-.7-1.05-1.57-1.05-2.59s.35-1.9,1.05-2.6,1.57-1.05,2.61-1.05c.67,0,1.29.16,1.84.49.55.32.97.76,1.25,1.3l-1.29.75c-.16-.33-.39-.59-.71-.78-.32-.19-.69-.28-1.1-.28-.61,0-1.12.21-1.53.62s-.62.93-.62,1.55.21,1.14.62,1.55c.41.42.92.62,1.53.62.41,0,.77-.1,1.1-.29s.58-.45.74-.78l1.29.73c-.3.55-.72.99-1.27,1.32-.55.32-1.17.49-1.84.49Z"/>
    <path class="cls-1" d="M73.2,37.66h1.5v6.93h-1.5v-1c-.56.79-1.37,1.18-2.42,1.18-.95,0-1.76-.35-2.44-1.06-.67-.71-1.01-1.57-1.01-2.58s.34-1.89,1.01-2.59c.67-.7,1.49-1.05,2.44-1.05,1.05,0,1.86.39,2.42,1.16v-.98ZM69.44,42.71c.42.42.94.63,1.57.63s1.15-.21,1.57-.63c.42-.42.62-.95.62-1.59s-.21-1.17-.62-1.59-.94-.63-1.57-.63-1.15.21-1.57.63-.62.95-.62,1.59.21,1.17.62,1.59Z"/>
    <path class="cls-1" d="M30.93,47.33h1.95v12.65h-1.95v-1.3c-.73,1.02-1.79,1.54-3.16,1.54-1.24,0-2.3-.46-3.18-1.38-.88-.92-1.32-2.04-1.32-3.37s.44-2.46,1.32-3.38c.88-.92,1.94-1.37,3.18-1.37,1.37,0,2.43.51,3.16,1.52v-4.9ZM26.03,57.53c.54.55,1.22.82,2.04.82s1.5-.27,2.04-.82c.54-.55.81-1.24.81-2.07s-.27-1.52-.81-2.07c-.54-.55-1.22-.82-2.04-.82s-1.5.27-2.04.82c-.54.55-.81,1.24-.81,2.07s.27,1.52.81,2.07Z"/>
    <path class="cls-1" d="M37.01,49.22c-.25.25-.54.37-.88.37s-.63-.12-.88-.37c-.25-.25-.37-.54-.37-.88s.12-.63.36-.88.54-.37.89-.37.64.12.89.37c.24.25.36.54.36.88s-.12.63-.37.88ZM35.15,59.98v-9.03h1.95v9.03h-1.95Z"/>
    <path class="cls-1" d="M46.55,50.95h1.91v8.62c0,1.37-.45,2.43-1.35,3.16-.9.74-2,1.1-3.29,1.1-2.08,0-3.51-.73-4.28-2.19l1.68-.98c.47.93,1.35,1.39,2.64,1.39.84,0,1.5-.22,1.98-.66.48-.44.71-1.05.71-1.83v-1.1c-.74,1.05-1.78,1.57-3.14,1.57-1.28,0-2.35-.45-3.23-1.36-.88-.91-1.32-2.01-1.32-3.3s.44-2.39,1.32-3.3c.88-.91,1.96-1.36,3.23-1.36,1.36,0,2.41.52,3.14,1.57v-1.34ZM41.63,57.4c.55.54,1.23.81,2.05.81s1.5-.27,2.05-.81c.55-.54.82-1.22.82-2.02s-.27-1.48-.82-2.02c-.55-.54-1.23-.81-2.05-.81s-1.5.27-2.05.81c-.55.54-.82,1.22-.82,2.02s.27,1.48.82,2.02Z"/>
    <path class="cls-1" d="M52.6,49.22c-.25.25-.54.37-.88.37s-.63-.12-.88-.37c-.25-.25-.37-.54-.37-.88s.12-.63.36-.88.54-.37.89-.37.64.12.89.37c.24.25.36.54.36.88s-.12.63-.37.88ZM50.74,59.98v-9.03h1.95v9.03h-1.95Z"/>
    <path class="cls-1" d="M59.99,52.83h-2.24v4.34c0,.37.08.64.25.8s.42.25.75.27c.33.02.74.02,1.24,0v1.75c-1.49.18-2.57.05-3.22-.39-.65-.44-.98-1.25-.98-2.43v-4.34h-1.66v-1.88h1.66v-1.95l1.95-.58v2.53h2.24v1.88Z"/>
    <path class="cls-1" d="M68.56,50.95h1.95v9.03h-1.95v-1.3c-.73,1.02-1.79,1.54-3.16,1.54-1.24,0-2.3-.46-3.18-1.38-.88-.92-1.32-2.04-1.32-3.37s.44-2.46,1.32-3.38c.88-.92,1.94-1.37,3.18-1.37,1.37,0,2.43.51,3.16,1.52v-1.28ZM63.66,57.53c.54.55,1.22.82,2.04.82s1.5-.27,2.04-.82c.54-.55.81-1.24.81-2.07s-.27-1.52-.81-2.07c-.54-.55-1.22-.82-2.04-.82s-1.5.27-2.04.82c-.54.55-.81,1.24-.81,2.07s.27,1.52.81,2.07Z"/>
    <path class="cls-1" d="M72.78,59.98v-13.19h1.95v13.19h-1.95Z"/>
  </g>
  <rect class="cls-1" x="23.62" y="45.57" width="7.15" height="1.28"/>
</svg>