<?xml version="1.0" encoding="UTF-8"?>
<svg id="Layer_1" xmlns="http://www.w3.org/2000/svg" xmlns:xlink="http://www.w3.org/1999/xlink" viewBox="0 0 151.83 151.32">
  <defs>
    <style>
      .cls-1 {
        fill: #ff4b00;
      }

      .cls-2 {
        fill: url(#linear-gradient);
      }
    </style>
    <linearGradient id="linear-gradient" x1="-1988.08" y1="690.67" x2="-1840.55" y2="690.67" gradientTransform="translate(766.39 1990.34) rotate(90)" gradientUnits="userSpaceOnUse">
      <stop offset="0" stop-color="#ff8b00"/>
      <stop offset="1" stop-color="#ff4b00"/>
      <stop offset="1" stop-color="#273893"/>
      <stop offset="1" stop-color="#000"/>
    </linearGradient>
  </defs>
  <path class="cls-2" d="M75.73,149.79C35.05,149.79,1.96,116.7,1.96,76.02S35.05,2.26,75.73,2.26s73.77,33.09,73.77,73.77-33.09,73.76-73.77,73.76ZM75.73,6.54C37.42,6.54,6.25,37.71,6.25,76.02s31.17,69.48,69.48,69.48,69.48-31.17,69.48-69.48S114.04,6.54,75.73,6.54Z"/>
  <g>
    <path class="cls-1" d="M42.86,56.68h2.49v11.55h-2.49v-1.66c-.94,1.31-2.29,1.96-4.04,1.96-1.59,0-2.94-.59-4.07-1.77-1.12-1.18-1.69-2.61-1.69-4.31s.56-3.15,1.69-4.32c1.12-1.17,2.48-1.76,4.07-1.76,1.76,0,3.1.65,4.04,1.94v-1.64ZM36.61,65.09c.69.7,1.56,1.05,2.61,1.05s1.92-.35,2.61-1.05c.69-.7,1.04-1.58,1.04-2.64s-.35-1.94-1.04-2.64-1.56-1.05-2.61-1.05-1.92.35-2.61,1.05-1.04,1.58-1.04,2.64.35,1.94,1.04,2.64Z"/>
    <path class="cls-1" d="M60.88,56.38c1.31,0,2.36.42,3.16,1.27s1.2,1.99,1.2,3.42v7.16h-2.49v-7c0-.8-.2-1.42-.6-1.86-.4-.44-.95-.66-1.64-.66-.77,0-1.38.25-1.84.76-.45.51-.68,1.27-.68,2.29v6.47h-2.49v-7c0-.8-.19-1.42-.57-1.86-.38-.44-.91-.66-1.61-.66-.75,0-1.37.26-1.85.77s-.72,1.27-.72,2.27v6.47h-2.49v-11.55h2.49v1.39c.74-1.12,1.84-1.69,3.3-1.69s2.57.61,3.28,1.83c.77-1.22,1.95-1.83,3.53-1.83Z"/>
    <path class="cls-1" d="M69.89,63.51c.18.88.61,1.55,1.27,2.02.66.47,1.47.7,2.43.7,1.32,0,2.32-.48,2.98-1.43l2.05,1.2c-1.14,1.68-2.82,2.52-5.06,2.52-1.88,0-3.4-.57-4.55-1.72-1.16-1.15-1.73-2.6-1.73-4.35s.57-3.17,1.71-4.33c1.14-1.16,2.6-1.74,4.39-1.74,1.69,0,3.08.59,4.17,1.78,1.09,1.19,1.63,2.63,1.63,4.32,0,.26-.03.61-.09,1.04h-9.19ZM69.86,61.48h6.79c-.17-.94-.56-1.65-1.17-2.12-.61-.48-1.32-.72-2.14-.72-.92,0-1.69.25-2.31.76-.62.51-1.01,1.2-1.18,2.08ZM76.47,51.99l-2.45,3.12h-2.4l1.85-3.12h3Z"/>
    <path class="cls-1" d="M83.86,58.62c.63-1.43,1.82-2.15,3.56-2.15v2.7c-.96-.06-1.79.17-2.49.68-.71.52-1.06,1.37-1.06,2.55v5.82h-2.49v-11.55h2.49v1.94Z"/>
    <path class="cls-1" d="M91.63,54.47c-.32.32-.69.47-1.12.47s-.8-.16-1.12-.47c-.32-.32-.47-.69-.47-1.12s.15-.8.46-1.12.68-.47,1.13-.47.82.16,1.13.47.46.69.46,1.12-.16.8-.47,1.12ZM89.26,68.22v-11.55h2.49v11.55h-2.49Z"/>
    <path class="cls-1" d="M100.09,68.52c-1.74,0-3.19-.58-4.35-1.76-1.16-1.17-1.74-2.61-1.74-4.32s.58-3.17,1.74-4.33,2.61-1.74,4.35-1.74c1.12,0,2.15.27,3.07.81.92.54,1.62,1.26,2.08,2.17l-2.15,1.25c-.26-.55-.66-.99-1.19-1.3-.53-.31-1.14-.47-1.84-.47-1.02,0-1.87.35-2.55,1.04s-1.03,1.56-1.03,2.59.34,1.89,1.03,2.59c.68.69,1.54,1.04,2.55,1.04.68,0,1.29-.16,1.84-.49s.96-.75,1.24-1.29l2.15,1.22c-.49.92-1.2,1.66-2.12,2.19-.92.54-1.95.81-3.07.81Z"/>
    <path class="cls-1" d="M116.05,56.68h2.49v11.55h-2.49v-1.66c-.94,1.31-2.29,1.96-4.04,1.96-1.59,0-2.94-.59-4.07-1.77-1.12-1.18-1.69-2.61-1.69-4.31s.56-3.15,1.69-4.32c1.12-1.17,2.48-1.76,4.07-1.76,1.76,0,3.1.65,4.04,1.94v-1.64ZM109.8,65.09c.69.7,1.56,1.05,2.61,1.05s1.92-.35,2.61-1.05c.69-.7,1.04-1.58,1.04-2.64s-.35-1.94-1.04-2.64-1.56-1.05-2.61-1.05-1.92.35-2.61,1.05-1.04,1.58-1.04,2.64.35,1.94,1.04,2.64Z"/>
    <path class="cls-1" d="M45.6,72.8h3.25v21.08h-3.25v-2.17c-1.22,1.71-2.98,2.56-5.27,2.56-2.07,0-3.83-.77-5.3-2.3-1.47-1.54-2.2-3.41-2.2-5.61s.73-4.1,2.2-5.63c1.46-1.53,3.23-2.29,5.3-2.29,2.29,0,4.04.84,5.27,2.53v-8.16ZM37.45,89.79c.9.91,2.04,1.37,3.4,1.37s2.5-.46,3.4-1.37c.9-.91,1.35-2.06,1.35-3.45s-.45-2.53-1.35-3.45c-.9-.91-2.04-1.37-3.4-1.37s-2.5.46-3.4,1.37c-.9.91-1.35,2.06-1.35,3.45s.45,2.53,1.35,3.45Z"/>
    <path class="cls-1" d="M55.74,75.94c-.41.41-.9.62-1.46.62s-1.05-.2-1.46-.62c-.41-.41-.62-.9-.62-1.46s.2-1.05.6-1.46.89-.62,1.48-.62,1.07.21,1.48.62c.4.41.6.9.6,1.46s-.21,1.05-.62,1.46ZM52.65,93.87v-15.05h3.25v15.05h-3.25Z"/>
    <path class="cls-1" d="M71.65,78.82h3.19v14.36c0,2.29-.75,4.04-2.26,5.27-1.51,1.23-3.33,1.84-5.48,1.84-3.47,0-5.85-1.21-7.14-3.64l2.8-1.63c.78,1.55,2.25,2.32,4.4,2.32,1.4,0,2.5-.37,3.3-1.1.79-.73,1.19-1.75,1.19-3.06v-1.84c-1.23,1.75-2.97,2.62-5.24,2.62-2.13,0-3.92-.76-5.39-2.27-1.47-1.52-2.2-3.35-2.2-5.5s.73-3.98,2.2-5.5c1.46-1.51,3.26-2.27,5.39-2.27,2.27,0,4.01.87,5.24,2.62v-2.23ZM63.45,89.57c.91.9,2.05,1.35,3.42,1.35s2.5-.45,3.42-1.35c.91-.9,1.37-2.03,1.37-3.37s-.46-2.47-1.37-3.37c-.91-.9-2.05-1.35-3.42-1.35s-2.5.45-3.42,1.35c-.91.9-1.37,2.03-1.37,3.37s.46,2.47,1.37,3.37Z"/>
    <path class="cls-1" d="M81.72,75.94c-.41.41-.9.62-1.46.62s-1.05-.2-1.46-.62c-.41-.41-.62-.9-.62-1.46s.2-1.05.6-1.46.89-.62,1.48-.62,1.07.21,1.48.62c.4.41.6.9.6,1.46s-.21,1.05-.62,1.46ZM78.63,93.87v-15.05h3.25v15.05h-3.25Z"/>
    <path class="cls-1" d="M94.05,81.95h-3.73v7.23c0,.62.14,1.07.42,1.34s.7.42,1.25.45c.55.03,1.24.03,2.06-.02v2.92c-2.49.3-4.28.08-5.36-.65-1.08-.73-1.63-2.08-1.63-4.05v-7.23h-2.77v-3.13h2.77v-3.25l3.25-.96v4.22h3.73v3.13Z"/>
    <path class="cls-1" d="M108.32,78.82h3.25v15.05h-3.25v-2.17c-1.22,1.71-2.98,2.56-5.27,2.56-2.07,0-3.83-.77-5.3-2.3-1.47-1.54-2.2-3.41-2.2-5.61s.73-4.1,2.2-5.63c1.46-1.53,3.23-2.29,5.3-2.29,2.29,0,4.04.84,5.27,2.53v-2.14ZM100.16,89.79c.9.91,2.04,1.37,3.4,1.37s2.5-.46,3.4-1.37c.9-.91,1.35-2.06,1.35-3.45s-.45-2.53-1.35-3.45c-.9-.91-2.04-1.37-3.4-1.37s-2.5.46-3.4,1.37c-.9.91-1.35,2.06-1.35,3.45s.45,2.53,1.35,3.45Z"/>
    <path class="cls-1" d="M115.37,93.87v-21.98h3.25v21.98h-3.25Z"/>
  </g>
  <rect class="cls-1" x="33.43" y="69.86" width="11.92" height="2.13"/>
</svg>