<?xml version="1.0" encoding="UTF-8"?>
<svg id="Layer_1" xmlns="http://www.w3.org/2000/svg" viewBox="0 0 151.83 151.32">
  <defs>
    <style>
      .cls-1 {
        fill: #ff4500;
      }
    </style>
  </defs>
  <g>
    <path class="cls-1" d="M23.68,126.94h3.95v18.31h-3.95v-2.64c-1.49,2.08-3.63,3.11-6.41,3.11-2.51,0-4.66-.93-6.44-2.8-1.78-1.87-2.67-4.14-2.67-6.83s.89-4.99,2.67-6.85c1.78-1.85,3.93-2.78,6.44-2.78,2.78,0,4.92,1.02,6.41,3.08v-2.6ZM13.76,140.29c1.1,1.11,2.48,1.67,4.14,1.67s3.04-.55,4.14-1.67c1.1-1.11,1.65-2.51,1.65-4.19s-.55-3.08-1.65-4.19-2.48-1.67-4.14-1.67-3.04.56-4.14,1.67-1.65,2.51-1.65,4.19.55,3.08,1.65,4.19Z"/>
    <path class="cls-1" d="M52.24,126.47c2.07,0,3.75.67,5.02,2.01,1.27,1.34,1.9,3.15,1.9,5.42v11.35h-3.95v-11.1c0-1.27-.32-2.25-.95-2.95-.63-.69-1.5-1.04-2.6-1.04-1.22,0-2.19.4-2.91,1.21s-1.08,2.01-1.08,3.63v10.25h-3.95v-11.1c0-1.27-.3-2.25-.9-2.95-.6-.69-1.45-1.04-2.55-1.04-1.2,0-2.17.41-2.93,1.23-.76.82-1.14,2.02-1.14,3.61v10.25h-3.95v-18.31h3.95v2.2c1.17-1.78,2.92-2.67,5.24-2.67s4.08.97,5.2,2.89c1.22-1.93,3.09-2.89,5.6-2.89Z"/>
    <path class="cls-1" d="M66.52,137.78c.29,1.39.96,2.46,2.01,3.2,1.05.75,2.33,1.12,3.85,1.12,2.1,0,3.67-.76,4.72-2.27l3.26,1.9c-1.81,2.66-4.48,3.99-8.02,3.99-2.98,0-5.38-.91-7.21-2.73-1.83-1.82-2.75-4.12-2.75-6.9s.9-5.02,2.71-6.87c1.81-1.84,4.12-2.77,6.96-2.77,2.68,0,4.89.94,6.61,2.82,1.72,1.88,2.58,4.16,2.58,6.85,0,.42-.05.97-.15,1.65h-14.57ZM66.49,134.56h10.77c-.27-1.49-.89-2.61-1.85-3.37-.96-.76-2.09-1.14-3.39-1.14-1.46,0-2.69.4-3.66,1.21s-1.6,1.9-1.87,3.3ZM76.96,119.51l-3.88,4.94h-3.81l2.93-4.94h4.76Z"/>
    <path class="cls-1" d="M88.68,130.02c1-2.27,2.88-3.41,5.64-3.41v4.28c-1.51-.1-2.83.26-3.95,1.08-1.12.82-1.69,2.17-1.69,4.05v9.23h-3.95v-18.31h3.95v3.08Z"/>
    <path class="cls-1" d="M101,123.45c-.5.5-1.09.75-1.78.75s-1.28-.25-1.78-.75c-.5-.5-.75-1.09-.75-1.77s.24-1.28.73-1.78,1.09-.75,1.79-.75,1.31.25,1.79.75c.49.5.73,1.09.73,1.78s-.25,1.28-.75,1.77ZM97.25,145.25v-18.31h3.95v18.31h-3.95Z"/>
    <path class="cls-1" d="M114.42,145.73c-2.76,0-5.06-.93-6.9-2.78-1.84-1.85-2.76-4.14-2.76-6.85s.92-5.02,2.76-6.87c1.84-1.84,4.14-2.77,6.9-2.77,1.78,0,3.4.43,4.87,1.28,1.46.86,2.56,2,3.29,3.44l-3.4,1.98c-.42-.88-1.04-1.57-1.89-2.07-.84-.5-1.81-.75-2.91-.75-1.61,0-2.96.55-4.05,1.65s-1.63,2.47-1.63,4.1.54,3,1.63,4.1,2.44,1.65,4.05,1.65c1.07,0,2.04-.26,2.91-.77.87-.51,1.52-1.19,1.96-2.05l3.41,1.94c-.78,1.47-1.9,2.62-3.37,3.48-1.47.86-3.09,1.28-4.87,1.28Z"/>
    <path class="cls-1" d="M139.72,126.94h3.95v18.31h-3.95v-2.64c-1.49,2.08-3.63,3.11-6.41,3.11-2.51,0-4.66-.93-6.44-2.8-1.78-1.87-2.67-4.14-2.67-6.83s.89-4.99,2.67-6.85c1.78-1.85,3.93-2.78,6.44-2.78,2.78,0,4.92,1.02,6.41,3.08v-2.6ZM129.8,140.29c1.1,1.11,2.48,1.67,4.14,1.67s3.04-.55,4.14-1.67c1.1-1.11,1.65-2.51,1.65-4.19s-.55-3.08-1.65-4.19-2.48-1.67-4.14-1.67-3.04.56-4.14,1.67-1.65,2.51-1.65,4.19.55,3.08,1.65,4.19Z"/>
  </g>
  <path class="cls-1" d="M119.91,30.82c-.28-.47-.55-.94-.84-1.4-3.45-5.55-7.95-10.39-13.21-14.24-1.31-.96-2.68-1.85-4.09-2.69-.49-.28-.97-.57-1.46-.83-7.38-4.04-15.69-6.18-24.16-6.22h-.47c-9.03.04-17.88,2.48-25.61,7.06-7.5,4.44-13.77,10.79-18.14,18.32-4.45,7.68-6.8,16.47-6.8,25.4s2.35,17.72,6.8,25.4l.74,1.27h.03c3.51,5.68,8.12,10.62,13.52,14.52,1.24.9,2.53,1.74,3.86,2.53.97.57,1.95,1.12,2.95,1.62,6.99,3.54,14.77,5.41,22.67,5.44h.45c5.08-.02,10.11-.8,14.91-2.3,3.74-1.16,7.34-2.75,10.72-4.76,1.77-1.04,3.47-2.19,5.1-3.45,4.87-3.75,9.05-8.36,12.28-13.61h.03l.74-1.27c.28-.48.55-.96.81-1.46,3.14-5.86,5.09-12.31,5.74-18.93.16-1.66.25-3.33.25-5.01,0-8.92-2.35-17.71-6.8-25.4M121.53,53.67h-14.17c-.29-6.59-1.67-12.96-4.13-19.01h12.98c3.14,5.85,4.95,12.36,5.33,19.01M78.47,12.35c6.71,4.38,12.42,10.32,16.52,17.2h-16.52V12.35ZM73.37,29.55h-16.54c4.1-6.88,9.82-12.83,16.54-17.21v17.21ZM65.56,11.73c-5.98,4.9-10.99,10.99-14.58,17.81h-12.16c6.49-8.99,16.05-15.31,26.74-17.81M73.37,34.65v19.01h-23.79c.31-6.62,1.85-13,4.58-19.01h19.21ZM73.37,58.76v19.02h-19.21c-2.73-6.01-4.26-12.38-4.58-19.02h23.79ZM73.37,82.89v17.21c-6.72-4.38-12.44-10.31-16.54-17.21h16.54ZM78.47,82.89h16.52c-4.1,6.89-9.81,12.83-16.52,17.2v-17.2ZM86.25,100.71c5.99-4.9,10.99-10.98,14.59-17.82h12.17c-6.49,9.01-16.06,15.31-26.76,17.82M78.47,77.78v-19.02h23.77c-.31,6.63-1.85,13.01-4.57,19.02h-19.2ZM78.47,53.67v-19.01h19.2c2.73,6.02,4.26,12.39,4.57,19.01h-23.77ZM101.34,18.29c1.22.82,2.41,1.7,3.56,2.63,3.04,2.5,5.78,5.39,8.12,8.62h-12.17c-3.6-6.83-8.6-12.92-14.59-17.81,4.92,1.15,9.59,3.1,13.85,5.76.42.26.83.52,1.24.8M35.64,34.65h12.97c-2.47,6.06-3.85,12.42-4.13,19.01h-14.17c.37-6.66,2.19-13.16,5.33-19.01M30.31,58.76h14.17c.28,6.59,1.67,12.97,4.13,19.02h-12.97c-1.88-3.51-3.29-7.26-4.2-11.13-.08-.34-.15-.66-.22-.99-.07-.32-.13-.64-.19-.96-.35-1.83-.58-3.67-.7-5.54,0-.13,0-.27-.02-.41M53,95.71c-5.52-3.2-10.38-7.55-14.17-12.82h12.16c3.59,6.83,8.6,12.92,14.58,17.81-2.5-.58-4.93-1.38-7.28-2.36-.9-.38-1.8-.79-2.68-1.23-.88-.44-1.75-.9-2.6-1.4M116.19,77.78h-12.98c2.47-6.05,3.85-12.42,4.13-19.02h14.17c-.37,6.67-2.19,13.17-5.33,19.02"/>
</svg>