<?xml version="1.0" encoding="UTF-8"?>
<svg id="Layer_1" xmlns="http://www.w3.org/2000/svg" viewBox="0 0 151.83 151.32">
  <defs>
    <style>
      .cls-1, .cls-2 {
        fill: #6679bf;
      }

      .cls-2 {
        stroke: #6679bf;
        stroke-miterlimit: 10;
        stroke-width: .48px;
      }

      .cls-3 {
        fill: #ff6700;
      }
    </style>
  </defs>
  <path class="cls-2" d="M76.4,149.33C35.73,149.33,2.64,116.24,2.64,75.57S35.73,1.8,76.4,1.8s73.76,33.09,73.76,73.77-33.09,73.76-73.76,73.76ZM76.4,6.08C38.09,6.08,6.92,37.25,6.92,75.57s31.17,69.48,69.48,69.48,69.48-31.17,69.48-69.48S114.72,6.08,76.4,6.08Z"/>
  <g>
    <g>
      <path class="cls-3" d="M39.61,61.25h2.76v12.77h-2.76v-1.84c-1.04,1.45-2.53,2.17-4.47,2.17-1.75,0-3.25-.65-4.5-1.95-1.24-1.3-1.86-2.89-1.86-4.76s.62-3.48,1.86-4.78c1.24-1.29,2.74-1.94,4.5-1.94,1.94,0,3.43.72,4.47,2.15v-1.81ZM32.69,70.56c.77.78,1.73,1.16,2.89,1.16s2.12-.39,2.89-1.16,1.15-1.75,1.15-2.93-.38-2.15-1.15-2.92c-.77-.78-1.73-1.16-2.89-1.16s-2.12.39-2.89,1.16c-.77.77-1.15,1.75-1.15,2.92s.38,2.15,1.15,2.93Z"/>
      <path class="cls-1" d="M59.53,60.92c1.45,0,2.61.47,3.5,1.41s1.33,2.2,1.33,3.78v7.92h-2.76v-7.74c0-.89-.22-1.57-.66-2.06s-1.05-.73-1.81-.73c-.85,0-1.53.28-2.03.84-.5.56-.75,1.41-.75,2.53v7.15h-2.76v-7.74c0-.89-.21-1.57-.63-2.06-.42-.49-1.01-.73-1.78-.73-.83,0-1.52.29-2.04.86-.53.57-.79,1.41-.79,2.52v7.15h-2.76v-12.77h2.76v1.53c.82-1.24,2.03-1.87,3.65-1.87s2.84.67,3.63,2.02c.85-1.34,2.15-2.02,3.91-2.02Z"/>
      <path class="cls-1" d="M69.49,68.81c.2.97.67,1.72,1.4,2.23.73.52,1.63.78,2.68.78,1.46,0,2.56-.53,3.3-1.58l2.27,1.33c-1.26,1.86-3.12,2.78-5.59,2.78-2.08,0-3.75-.63-5.03-1.9-1.28-1.27-1.92-2.87-1.92-4.82s.63-3.5,1.89-4.79c1.26-1.29,2.88-1.93,4.85-1.93,1.87,0,3.41.66,4.61,1.97,1.2,1.31,1.8,2.9,1.8,4.78,0,.29-.03.67-.1,1.15h-10.17ZM69.47,66.57h7.51c-.19-1.04-.62-1.82-1.29-2.35-.67-.53-1.46-.79-2.36-.79-1.02,0-1.87.28-2.55.84s-1.12,1.33-1.3,2.3ZM76.77,56.07l-2.71,3.45h-2.66l2.04-3.45h3.32Z"/>
      <path class="cls-1" d="M84.95,63.4c.7-1.58,2.01-2.38,3.93-2.38v2.99c-1.06-.07-1.98.18-2.76.75-.78.57-1.18,1.51-1.18,2.82v6.44h-2.76v-12.77h2.76v2.15Z"/>
      <path class="cls-1" d="M93.54,58.81c-.35.35-.76.52-1.24.52s-.89-.17-1.24-.52c-.35-.35-.52-.76-.52-1.24s.17-.89.51-1.24c.34-.35.76-.52,1.25-.52s.91.18,1.25.52c.34.35.51.76.51,1.24s-.17.89-.52,1.24ZM90.92,74.02v-12.77h2.76v12.77h-2.76Z"/>
      <path class="cls-1" d="M102.9,74.36c-1.92,0-3.53-.65-4.81-1.94-1.29-1.29-1.93-2.89-1.93-4.78s.64-3.5,1.93-4.79c1.29-1.29,2.89-1.93,4.81-1.93,1.24,0,2.38.3,3.4.89,1.02.6,1.79,1.4,2.3,2.4l-2.38,1.38c-.29-.61-.73-1.09-1.32-1.44-.59-.35-1.26-.52-2.03-.52-1.12,0-2.06.38-2.82,1.15-.76.77-1.14,1.72-1.14,2.86s.38,2.1,1.14,2.86c.76.77,1.7,1.15,2.82,1.15.75,0,1.43-.18,2.03-.54.6-.36,1.06-.83,1.37-1.43l2.38,1.35c-.55,1.02-1.33,1.83-2.35,2.43-1.02.6-2.15.89-3.4.89Z"/>
      <path class="cls-1" d="M120.55,61.25h2.76v12.77h-2.76v-1.84c-1.04,1.45-2.53,2.17-4.47,2.17-1.75,0-3.25-.65-4.5-1.95-1.24-1.3-1.86-2.89-1.86-4.76s.62-3.48,1.86-4.78c1.24-1.29,2.74-1.94,4.5-1.94,1.94,0,3.43.72,4.47,2.15v-1.81ZM113.63,70.56c.77.78,1.73,1.16,2.89,1.16s2.12-.39,2.89-1.16,1.15-1.75,1.15-2.93-.38-2.15-1.15-2.92c-.77-.78-1.73-1.16-2.89-1.16s-2.12.39-2.89,1.16c-.77.77-1.15,1.75-1.15,2.92s.38,2.15,1.15,2.93Z"/>
      <path class="cls-1" d="M31.63,87.2c.2.96.67,1.7,1.39,2.22.73.52,1.61.77,2.66.77,1.45,0,2.54-.52,3.27-1.57l2.25,1.32c-1.25,1.84-3.1,2.76-5.55,2.76-2.06,0-3.72-.63-4.99-1.89-1.27-1.26-1.9-2.85-1.9-4.77s.62-3.47,1.87-4.75c1.25-1.27,2.85-1.91,4.81-1.91,1.86,0,3.38.65,4.57,1.95,1.19,1.3,1.79,2.88,1.79,4.74,0,.29-.03.67-.1,1.14h-10.08ZM31.61,84.97h7.44c-.19-1.03-.61-1.81-1.28-2.33-.67-.52-1.45-.78-2.34-.78-1.01,0-1.86.28-2.53.84-.68.56-1.11,1.32-1.29,2.28Z"/>
      <path class="cls-1" d="M45.99,83.18c0,.42.23.75.7.99s1.03.46,1.68.67c.66.2,1.33.41,2.01.62.69.21,1.26.6,1.72,1.18.46.57.69,1.29.69,2.16,0,1.22-.47,2.17-1.41,2.86-.94.69-2.11,1.04-3.53,1.04-1.25,0-2.32-.26-3.22-.79-.9-.52-1.54-1.25-1.95-2.18l2.36-1.37c.44,1.22,1.38,1.82,2.81,1.82s2.15-.47,2.15-1.42c0-.41-.23-.73-.7-.99-.46-.25-1.02-.48-1.68-.68-.66-.2-1.33-.41-2.01-.62s-1.26-.59-1.73-1.14c-.46-.55-.7-1.24-.7-2.09,0-1.16.44-2.1,1.33-2.81.89-.71,1.99-1.06,3.3-1.06,1.05,0,1.98.23,2.8.7.82.47,1.45,1.11,1.89,1.94l-2.3,1.29c-.44-.96-1.23-1.44-2.38-1.44-.52,0-.96.11-1.32.34-.35.23-.53.55-.53.99Z"/>
      <path class="cls-1" d="M61.59,82.33h-3.14v6.08c0,.52.12.9.35,1.13.24.23.59.36,1.05.38.46.03,1.04.02,1.73-.01v2.46c-2.09.25-3.6.07-4.51-.54-.91-.62-1.37-1.75-1.37-3.41v-6.08h-2.33v-2.63h2.33v-2.73l2.74-.81v3.54h3.14v2.63Z"/>
      <path class="cls-1" d="M72.55,79.7h2.74v12.66h-2.74v-1.62c-.83,1.3-2.14,1.95-3.92,1.95-1.45,0-2.63-.46-3.52-1.39-.89-.93-1.34-2.2-1.34-3.82v-7.77h2.73v7.5c0,.95.25,1.67.76,2.18s1.2.76,2.08.76c.96,0,1.74-.3,2.33-.9.59-.6.89-1.51.89-2.75v-6.79Z"/>
      <path class="cls-1" d="M88.33,74.64h2.73v17.72h-2.73v-1.82c-1.03,1.44-2.51,2.15-4.43,2.15-1.74,0-3.22-.65-4.46-1.94-1.23-1.29-1.85-2.87-1.85-4.72s.62-3.45,1.85-4.74,2.72-1.92,4.46-1.92c1.92,0,3.4.71,4.43,2.13v-6.86ZM81.46,88.93c.76.77,1.71,1.15,2.86,1.15s2.1-.38,2.86-1.15c.76-.77,1.14-1.73,1.14-2.9s-.38-2.13-1.14-2.9-1.71-1.15-2.86-1.15-2.1.38-2.86,1.15-1.14,1.73-1.14,2.9.38,2.13,1.14,2.9Z"/>
      <path class="cls-1" d="M96.67,77.28c-.35.35-.76.52-1.23.52s-.88-.17-1.23-.52c-.35-.35-.52-.76-.52-1.23s.17-.88.51-1.23c.34-.35.75-.52,1.24-.52s.9.17,1.24.52c.34.35.51.76.51,1.23s-.17.88-.52,1.23ZM94.07,92.36v-12.66h2.73v12.66h-2.73Z"/>
      <path class="cls-1" d="M105.77,92.69c-1.86,0-3.44-.64-4.74-1.92s-1.95-2.86-1.95-4.74.65-3.45,1.95-4.74,2.88-1.92,4.74-1.92,3.46.64,4.75,1.92,1.94,2.86,1.94,4.74-.65,3.45-1.94,4.74c-1.29,1.28-2.87,1.92-4.75,1.92ZM102.96,88.89c.76.76,1.7,1.14,2.81,1.14s2.05-.38,2.81-1.14c.76-.76,1.14-1.71,1.14-2.86s-.38-2.1-1.14-2.86c-.76-.76-1.7-1.14-2.81-1.14s-2.05.38-2.81,1.14c-.76.76-1.14,1.71-1.14,2.86s.38,2.1,1.14,2.86Z"/>
      <path class="cls-1" d="M116.96,83.18c0,.42.23.75.7.99s1.03.46,1.68.67c.66.2,1.33.41,2.01.62.69.21,1.26.6,1.72,1.18.46.57.69,1.29.69,2.16,0,1.22-.47,2.17-1.41,2.86-.94.69-2.11,1.04-3.53,1.04-1.25,0-2.32-.26-3.22-.79-.9-.52-1.54-1.25-1.95-2.18l2.36-1.37c.44,1.22,1.38,1.82,2.81,1.82s2.15-.47,2.15-1.42c0-.41-.23-.73-.7-.99-.46-.25-1.02-.48-1.68-.68-.66-.2-1.33-.41-2.01-.62s-1.26-.59-1.73-1.14c-.46-.55-.7-1.24-.7-2.09,0-1.16.44-2.1,1.33-2.81.89-.71,1.99-1.06,3.3-1.06,1.05,0,1.98.23,2.8.7.82.47,1.45,1.11,1.89,1.94l-2.3,1.29c-.44-.96-1.23-1.44-2.38-1.44-.52,0-.96.11-1.32.34-.35.23-.53.55-.53.99Z"/>
    </g>
    <rect class="cls-3" x="29.12" y="75.64" width="13.19" height="2.36"/>
  </g>
</svg>