<?xml version="1.0" encoding="UTF-8"?>
<svg id="Layer_1" xmlns="http://www.w3.org/2000/svg" viewBox="0 0 98.33 98.33">
  <defs>
    <style>
      .cls-1 {
        fill: #ff4500;
      }
    </style>
  </defs>
  <path class="cls-1" d="M89.22,26.39c-.25-.42-.5-.85-.76-1.26-3.11-5.01-7.18-9.38-11.93-12.86-1.19-.86-2.42-1.67-3.69-2.43-.44-.26-.88-.51-1.32-.75-6.66-3.65-14.16-5.58-21.81-5.62h-.42c-8.15.03-16.14,2.24-23.12,6.38-6.77,4.01-12.43,9.74-16.37,16.54-4.01,6.94-6.14,14.87-6.14,22.93s2.12,15.99,6.14,22.93l.67,1.15h.02c3.17,5.13,7.33,9.59,12.2,13.11,1.12.82,2.28,1.57,3.48,2.28.88.52,1.76,1.01,2.66,1.46,6.31,3.19,13.33,4.89,20.46,4.91h.41c4.59-.02,9.12-.72,13.46-2.08,3.37-1.05,6.62-2.48,9.67-4.3,1.6-.94,3.13-1.98,4.6-3.11,4.4-3.38,8.17-7.55,11.09-12.28h.03l.67-1.15c.25-.43.49-.87.73-1.32,2.83-5.29,4.59-11.11,5.18-17.09.15-1.5.22-3.01.22-4.52,0-8.05-2.12-15.99-6.14-22.93M90.68,47.02h-12.8c-.26-5.95-1.51-11.7-3.73-17.16h11.72c2.83,5.28,4.47,11.15,4.81,17.16M51.82,9.72c6.06,3.95,11.21,9.31,14.92,15.53h-14.92v-15.53ZM47.21,25.24h-14.93c3.7-6.21,8.86-11.58,14.93-15.54v15.54ZM40.17,9.16c-5.4,4.42-9.92,9.92-13.16,16.08h-10.98c5.86-8.12,14.49-13.82,24.14-16.08M47.21,29.85v17.16h-21.47c.28-5.98,1.67-11.73,4.13-17.16h17.34ZM47.21,51.62v17.17h-17.34c-2.46-5.42-3.85-11.18-4.13-17.17h21.47ZM47.21,73.39v15.53c-6.07-3.95-11.23-9.31-14.93-15.53h14.93ZM51.82,73.39h14.92c-3.7,6.22-8.85,11.58-14.92,15.53v-15.53ZM58.84,89.48c5.4-4.42,9.92-9.92,13.17-16.08h10.98c-5.86,8.13-14.5,13.82-24.15,16.08M51.82,68.78v-17.17h21.46c-.28,5.99-1.67,11.74-4.13,17.17h-17.33ZM51.82,47.02v-17.16h17.33c2.46,5.43,3.85,11.19,4.13,17.16h-21.46ZM72.46,15.08c1.1.74,2.18,1.53,3.21,2.37,2.75,2.26,5.22,4.87,7.33,7.78h-10.99c-3.25-6.16-7.76-11.66-13.17-16.08,4.44,1.04,8.66,2.8,12.5,5.2.38.23.75.47,1.12.72M13.15,29.85h11.71c-2.23,5.47-3.48,11.22-3.73,17.16h-12.79c.34-6.01,1.98-11.88,4.81-17.16M8.34,51.62h12.79c.25,5.95,1.51,11.71,3.73,17.17h-11.7c-1.7-3.17-2.97-6.55-3.79-10.05-.07-.3-.13-.59-.2-.89-.06-.29-.12-.58-.17-.86-.31-1.65-.52-3.32-.63-5,0-.12,0-.24-.02-.37M28.83,84.97c-4.98-2.89-9.37-6.81-12.8-11.57h10.97c3.24,6.17,7.76,11.66,13.16,16.08-2.25-.52-4.45-1.24-6.57-2.13-.82-.34-1.63-.71-2.42-1.11-.8-.39-1.58-.81-2.35-1.26M85.87,68.78h-11.71c2.23-5.46,3.48-11.21,3.73-17.17h12.8c-.34,6.02-1.98,11.89-4.81,17.17"/>
</svg>