<?xml version="1.0" encoding="UTF-8"?>
<svg id="Layer_1" xmlns="http://www.w3.org/2000/svg" viewBox="0 0 98 98">
  <defs>
    <style>
      .cls-1 {
        fill: #fff;
      }
    </style>
  </defs>
  <g>
    <path class="cls-1" d="M17.66,79.82h2.37v10.99h-2.37v-1.58c-.89,1.25-2.18,1.87-3.84,1.87-1.51,0-2.8-.56-3.87-1.68-1.07-1.12-1.6-2.49-1.6-4.1s.53-3,1.6-4.11c1.07-1.11,2.36-1.67,3.87-1.67,1.67,0,2.95.61,3.84,1.85v-1.56ZM11.71,87.83c.66.67,1.49,1,2.48,1s1.82-.33,2.48-1c.66-.67.99-1.5.99-2.51s-.33-1.85-.99-2.52-1.49-1-2.48-1-1.82.33-2.48,1-.99,1.5-.99,2.52.33,1.85.99,2.51Z"/>
    <path class="cls-1" d="M34.8,79.54c1.24,0,2.25.4,3.01,1.21.76.81,1.14,1.89,1.14,3.25v6.81h-2.37v-6.66c0-.76-.19-1.35-.57-1.77-.38-.42-.9-.63-1.56-.63-.73,0-1.31.24-1.75.73s-.65,1.21-.65,2.18v6.15h-2.37v-6.66c0-.76-.18-1.35-.54-1.77-.36-.42-.87-.63-1.53-.63-.72,0-1.3.25-1.76.74-.45.49-.68,1.21-.68,2.16v6.15h-2.37v-10.99h2.37v1.32c.7-1.07,1.75-1.6,3.14-1.6s2.45.58,3.12,1.74c.73-1.16,1.85-1.74,3.36-1.74Z"/>
    <path class="cls-1" d="M43.36,86.33c.18.84.58,1.48,1.21,1.92.63.45,1.4.67,2.31.67,1.26,0,2.2-.45,2.83-1.36l1.96,1.14c-1.08,1.6-2.69,2.4-4.81,2.4-1.79,0-3.23-.55-4.33-1.64-1.1-1.09-1.65-2.47-1.65-4.14s.54-3.01,1.63-4.12c1.08-1.11,2.47-1.66,4.17-1.66,1.61,0,2.93.56,3.97,1.69,1.03,1.13,1.55,2.5,1.55,4.11,0,.25-.03.58-.09.99h-8.74ZM43.34,84.39h6.46c-.16-.89-.53-1.57-1.11-2.02-.58-.45-1.26-.68-2.03-.68-.88,0-1.61.24-2.2.73s-.96,1.14-1.12,1.98ZM49.63,75.36l-2.33,2.97h-2.28l1.76-2.97h2.86Z"/>
    <path class="cls-1" d="M56.66,81.67c.6-1.36,1.73-2.04,3.38-2.04v2.57c-.91-.06-1.7.16-2.37.65-.67.49-1.01,1.3-1.01,2.43v5.54h-2.37v-10.99h2.37v1.85Z"/>
    <path class="cls-1" d="M64.05,77.72c-.3.3-.66.45-1.07.45s-.77-.15-1.07-.45c-.3-.3-.45-.66-.45-1.06s.15-.77.44-1.07.65-.45,1.08-.45.78.15,1.08.45c.29.3.44.66.44,1.07s-.15.77-.45,1.06ZM61.8,90.81v-10.99h2.37v10.99h-2.37Z"/>
    <path class="cls-1" d="M72.1,91.09c-1.66,0-3.04-.56-4.14-1.67-1.11-1.11-1.66-2.48-1.66-4.11s.55-3.01,1.66-4.12c1.11-1.11,2.49-1.66,4.14-1.66,1.07,0,2.04.26,2.92.77.88.51,1.54,1.2,1.98,2.07l-2.04,1.19c-.25-.53-.63-.94-1.13-1.24-.51-.3-1.09-.45-1.75-.45-.97,0-1.78.33-2.43.99s-.98,1.48-.98,2.46.33,1.8.98,2.46,1.46.99,2.43.99c.64,0,1.23-.15,1.75-.46.52-.31.91-.72,1.18-1.23l2.04,1.16c-.47.88-1.14,1.57-2.02,2.09-.88.51-1.85.77-2.92.77Z"/>
    <path class="cls-1" d="M87.28,79.82h2.37v10.99h-2.37v-1.58c-.89,1.25-2.18,1.87-3.84,1.87-1.51,0-2.8-.56-3.87-1.68-1.07-1.12-1.6-2.49-1.6-4.1s.53-3,1.6-4.11c1.07-1.11,2.36-1.67,3.87-1.67,1.67,0,2.95.61,3.84,1.85v-1.56ZM81.33,87.83c.66.67,1.49,1,2.48,1s1.82-.33,2.48-1c.66-.67.99-1.5.99-2.51s-.33-1.85-.99-2.52-1.49-1-2.48-1-1.82.33-2.48,1-.99,1.5-.99,2.52.33,1.85.99,2.51Z"/>
  </g>
  <path class="cls-1" d="M75.4,22.15c-.17-.28-.33-.56-.5-.84-2.07-3.33-4.77-6.23-7.93-8.54-.79-.57-1.61-1.11-2.45-1.61-.29-.17-.58-.34-.88-.5-4.43-2.43-9.41-3.71-14.5-3.73h-.28c-5.42.02-10.73,1.49-15.37,4.24-4.5,2.66-8.26,6.47-10.88,10.99-2.67,4.61-4.08,9.88-4.08,15.24s1.41,10.63,4.08,15.24l.44.76h.02c2.1,3.41,4.87,6.37,8.11,8.71.75.54,1.52,1.05,2.31,1.52.58.34,1.17.67,1.77.97,4.2,2.12,8.86,3.25,13.6,3.27h.27c3.05-.01,6.06-.48,8.94-1.38,2.24-.7,4.4-1.65,6.43-2.86,1.06-.62,2.08-1.32,3.06-2.07,2.92-2.25,5.43-5.02,7.37-8.16h.02l.44-.76c.17-.29.33-.58.49-.88,1.88-3.51,3.05-7.38,3.44-11.36.1-1,.15-2,.15-3,0-5.35-1.41-10.63-4.08-15.24M76.37,35.86h-8.5c-.17-3.95-1-7.78-2.48-11.41h7.79c1.88,3.51,2.97,7.41,3.2,11.41M50.53,11.06c4.03,2.63,7.45,6.19,9.91,10.32h-9.91v-10.32ZM47.47,21.38h-9.92c2.46-4.13,5.89-7.7,9.92-10.33v10.33ZM42.79,10.7c-3.59,2.94-6.59,6.59-8.75,10.69h-7.3c3.89-5.39,9.63-9.18,16.04-10.69M47.47,24.45v11.41h-14.27c.19-3.97,1.11-7.8,2.75-11.41h11.53ZM47.47,38.91v11.41h-11.53c-1.64-3.61-2.56-7.43-2.75-11.41h14.27ZM47.47,53.39v10.32c-4.03-2.63-7.46-6.19-9.92-10.32h9.92ZM50.53,53.39h9.91c-2.46,4.13-5.89,7.7-9.91,10.32v-10.32ZM55.2,64.08c3.59-2.94,6.59-6.59,8.75-10.69h7.3c-3.89,5.4-9.63,9.19-16.05,10.69M50.53,50.32v-11.41h14.26c-.19,3.98-1.11,7.8-2.74,11.41h-11.52ZM50.53,35.86v-11.41h11.52c1.64,3.61,2.56,7.44,2.74,11.41h-14.26ZM64.25,14.63c.73.49,1.45,1.02,2.13,1.58,1.83,1.5,3.47,3.23,4.87,5.17h-7.3c-2.16-4.1-5.16-7.75-8.75-10.69,2.95.69,5.76,1.86,8.31,3.45.25.16.5.31.74.48M24.83,24.45h7.78c-1.48,3.63-2.31,7.45-2.48,11.41h-8.5c.22-3.99,1.31-7.9,3.2-11.41M21.63,38.91h8.5c.17,3.96,1,7.78,2.48,11.41h-7.78c-1.13-2.11-1.98-4.35-2.52-6.68-.05-.2-.09-.39-.13-.59-.04-.19-.08-.38-.11-.57-.21-1.1-.35-2.2-.42-3.32,0-.08,0-.16-.01-.24M35.25,61.08c-3.31-1.92-6.23-4.53-8.5-7.69h7.29c2.16,4.1,5.16,7.75,8.75,10.69-1.5-.35-2.96-.83-4.37-1.42-.54-.23-1.08-.47-1.61-.74-.53-.26-1.05-.54-1.56-.84M73.17,50.32h-7.79c1.48-3.63,2.31-7.45,2.48-11.41h8.5c-.22,4-1.32,7.9-3.2,11.41"/>
</svg>