<?xml version="1.0" encoding="UTF-8"?>
<svg xmlns="http://www.w3.org/2000/svg" viewBox="0 0 98 98">
  <defs>
    <style>
      .cls-1 {
        fill: #00aff3;
      }

      .cls-1, .cls-2 {
        mix-blend-mode: multiply;
      }

      .cls-3 {
        fill: #fff;
      }

      .cls-4 {
        fill: none;
      }

      .cls-5 {
        isolation: isolate;
      }

      .cls-2 {
        fill: #ffd000;
      }

      .cls-6 {
        fill: #e24390;
      }
    </style>
  </defs>
  <g class="cls-5">
    <g id="Layer_1">
      <g>
        <path class="cls-3" d="M49,93.53c-24.4,0-44.26-19.85-44.26-44.26S24.6,5.01,49,5.01s44.26,19.85,44.26,44.26-19.85,44.26-44.26,44.26ZM49,7.58C26.01,7.58,7.31,26.28,7.31,49.27s18.7,41.69,41.69,41.69,41.69-18.7,41.69-41.69S71.99,7.58,49,7.58Z"/>
        <g>
          <path class="cls-3" d="M21.54,48.19h.49c.2,0,.36-.03.49-.08.13-.05.24-.14.33-.26l3.11-3.96c.13-.17.27-.28.41-.35.14-.07.32-.1.54-.1h1.81l-3.79,4.71c-.12.15-.23.27-.34.37-.11.1-.23.18-.35.24.17.06.33.15.46.27.14.11.27.26.4.44l3.91,5.3h-1.85c-.25,0-.43-.04-.56-.11-.12-.07-.22-.17-.31-.31l-3.18-4.18c-.1-.14-.22-.23-.35-.29-.13-.06-.31-.09-.55-.09h-.66v4.98h-2.09v-11.33h2.09v4.75Z"/>
          <path class="cls-3" d="M40.09,54.77h-1.62c-.18,0-.33-.05-.45-.14-.12-.09-.2-.21-.25-.34l-.84-2.31h-4.66l-.84,2.31c-.04.12-.12.23-.25.33-.12.1-.27.15-.45.15h-1.63l4.42-11.33h2.14l4.42,11.33ZM32.81,50.5h3.59l-1.37-3.77c-.06-.17-.13-.36-.21-.59-.08-.23-.15-.47-.22-.74-.07.27-.14.51-.21.74-.07.23-.14.43-.21.6l-1.37,3.75Z"/>
          <path class="cls-3" d="M42.62,50.79v3.99h-2.09v-11.33h3.67c.75,0,1.4.09,1.95.27.55.18,1,.43,1.36.74.36.32.62.7.79,1.14.17.44.26.93.26,1.46s-.09,1.05-.27,1.51c-.18.46-.45.85-.82,1.18-.36.33-.82.58-1.36.77-.55.18-1.18.27-1.92.27h-1.57ZM42.62,49.14h1.57c.38,0,.72-.05,1-.14.29-.1.52-.23.71-.42.19-.18.33-.4.42-.66.09-.26.14-.55.14-.87s-.05-.58-.14-.82c-.09-.25-.23-.45-.42-.63-.19-.17-.42-.3-.71-.4s-.62-.14-1-.14h-1.57v4.06Z"/>
          <path class="cls-3" d="M62.45,43.45h1.76c.18,0,.33.04.46.13.12.09.2.2.25.35l1.92,6.77c.05.17.09.35.13.54s.08.4.11.62c.04-.22.09-.43.14-.62.05-.2.1-.38.16-.54l2.21-6.77c.04-.12.12-.23.25-.33.12-.1.27-.15.45-.15h.62c.18,0,.33.04.45.13s.2.2.25.35l2.2,6.77c.11.33.21.7.3,1.11.04-.2.07-.4.11-.59.04-.19.08-.36.12-.52l1.92-6.77c.04-.13.12-.24.24-.34s.28-.14.45-.14h1.64l-3.5,11.33h-1.89l-2.46-7.74c-.03-.1-.06-.21-.1-.32-.03-.11-.07-.24-.1-.37-.03.13-.06.25-.1.37-.03.12-.07.22-.1.32l-2.48,7.74h-1.89l-3.5-11.33Z"/>
          <g>
            <path class="cls-4" d="M54.33,49.27c0-1.8.64-3.4,1.79-4.51-.67.21-1.26.6-1.73,1.13-.74.84-1.15,2.04-1.15,3.38s.41,2.52,1.15,3.37c.47.54,1.06.92,1.73,1.14,0,0,0,0,0,0-1.16-1.11-1.79-2.71-1.79-4.51Z"/>
            <path class="cls-4" d="M58.76,44.74s0,0,.01.01h0s0,0,0,0c.06.06.13.13.19.19,1.04,1.1,1.62,2.64,1.62,4.32s-.57,3.22-1.62,4.32c-.06.06-.12.13-.19.19h0s-.01,0-.01,0c0,0,0,0-.01.01h0s0,0,0,0c1.83-.54,3.02-2.25,3.02-4.54,0-1.33-.41-2.53-1.17-3.38-.5-.57-1.14-.96-1.86-1.17,0,0,0,0,0,0h0Z"/>
            <path class="cls-4" d="M53.3,53.59c-1.04-1.1-1.61-2.63-1.61-4.32s.57-3.22,1.61-4.32c.07-.08.15-.15.23-.23-.73.21-1.37.6-1.87,1.17-.74.84-1.15,2.04-1.15,3.38s.41,2.52,1.15,3.37c.5.57,1.14.97,1.87,1.18-.08-.07-.15-.15-.23-.23Z"/>
            <path class="cls-4" d="M59.04,49.27c0-1.33-.41-2.53-1.17-3.38-.13-.15-.27-.28-.42-.41-1.01.85-1.57,2.19-1.57,3.78s.56,2.92,1.57,3.78c.99-.83,1.59-2.16,1.59-3.78Z"/>
            <path class="cls-3" d="M54.39,52.64c-.74-.85-1.15-2.04-1.15-3.37s.41-2.53,1.15-3.38c.47-.54,1.06-.92,1.73-1.13,0,0,0,0,0,0-.42-.13-.88-.2-1.36-.2-.44,0-.85.06-1.24.16-.08.07-.15.15-.23.23-1.04,1.1-1.61,2.63-1.61,4.32s.57,3.22,1.61,4.32c.07.08.15.15.23.23.39.11.8.17,1.24.17.48,0,.94-.07,1.36-.21-.67-.22-1.26-.6-1.73-1.14Z"/>
            <path class="cls-3" d="M61.71,44.95c-1.06-1.12-2.55-1.73-4.21-1.73-.47,0-.93.05-1.37.15.46.1.91.26,1.32.46h0s.01,0,.01,0c.26.13.51.28.75.45,0,0,0,0,.01.01.04.03.07.05.11.08,0,0,.01.01.02.02.05.04.1.08.14.12.03.02.06.05.09.07.01.01.03.03.04.04.04.03.08.07.12.11,0,0,0,0,0,0,.72.21,1.35.6,1.86,1.17.75.85,1.17,2.05,1.17,3.38,0,2.29-1.19,4-3.02,4.54,0,0,0,0-.01,0-.04.04-.08.07-.11.1-.02.01-.03.03-.05.04-.03.02-.06.05-.08.07-.09.07-.18.15-.28.21,0,0,0,0-.01,0-.24.17-.49.32-.75.45h-.01s0,0,0,0c-.41.2-.86.36-1.32.46.44.1.9.15,1.37.15,1.66,0,3.15-.61,4.21-1.73,1.04-1.1,1.62-2.64,1.62-4.32s-.57-3.22-1.62-4.32Z"/>
            <polygon class="cls-1" points="56.12 53.78 56.12 53.78 56.12 53.78 56.12 53.78"/>
            <path class="cls-3" d="M51.65,52.64c-.74-.85-1.15-2.04-1.15-3.37s.41-2.53,1.15-3.38c.5-.57,1.14-.97,1.87-1.17.72-.67,1.61-1.14,2.61-1.36-.44-.1-.9-.15-1.37-.15-1.66,0-3.15.61-4.2,1.73-1.04,1.1-1.61,2.63-1.61,4.32s.57,3.22,1.61,4.32c1.05,1.12,2.54,1.73,4.2,1.73.47,0,.93-.05,1.37-.15-.99-.22-1.89-.68-2.61-1.36-.73-.21-1.36-.6-1.87-1.18Z"/>
            <path class="cls-3" d="M57.46,45.47s0,0-.01.01c.15.12.29.26.42.41.75.85,1.17,2.05,1.17,3.38,0,1.61-.6,2.95-1.59,3.78,0,0,.01,0,.02.01.38.31.81.55,1.28.71h.04c.06-.05.13-.11.19-.18,1.04-1.1,1.62-2.64,1.62-4.32s-.57-3.22-1.62-4.32c-.06-.07-.13-.13-.19-.19h-.04c-.47.17-.9.4-1.28.72Z"/>
            <path class="cls-3" d="M54.33,49.27c0,1.8.64,3.39,1.79,4.51.49-.16.94-.41,1.33-.73-1.01-.85-1.57-2.19-1.57-3.78s.56-2.93,1.57-3.78c-.39-.33-.83-.57-1.32-.73,0,0,0,0,0,0-1.16,1.11-1.79,2.71-1.79,4.51Z"/>
            <polygon class="cls-2" points="58.78 44.76 58.77 44.75 58.78 44.76 58.78 44.76"/>
            <polygon class="cls-2" points="58.78 53.78 58.78 53.78 58.77 53.79 58.78 53.78"/>
            <polygon class="cls-2" points="58.76 53.8 58.75 53.81 58.75 53.81 58.75 53.81 58.76 53.8"/>
            <path class="cls-2" d="M58.76,44.74h0s0,0,0-.01c0,0,0,0,0,0,0,0,0,0,.01.01Z"/>
            <path class="cls-3" d="M57.46,43.83h-.01s0,0,0,0c.27.13.52.29.76.46-.24-.17-.49-.32-.75-.45Z"/>
            <path class="cls-3" d="M57.46,43.83h-.01s0,0,0,0c.27.13.52.29.76.46-.24-.17-.49-.32-.75-.45Z"/>
            <polygon class="cls-6" points="56.13 44.76 56.13 44.76 56.12 44.76 56.13 44.76"/>
            <polygon class="cls-2" points="56.13 44.76 56.13 44.76 56.12 44.76 56.13 44.76"/>
            <polygon class="cls-6" points="58.74 53.82 58.75 53.81 58.75 53.81 58.74 53.82"/>
            <polygon class="cls-2" points="58.74 53.82 58.75 53.81 58.75 53.81 58.74 53.82"/>
            <polygon class="cls-6" points="58.75 44.72 58.74 44.72 58.75 44.72 58.75 44.72"/>
            <polygon class="cls-2" points="58.75 44.72 58.74 44.72 58.75 44.72 58.75 44.72"/>
            <path class="cls-3" d="M57.45,54.71h.01c.26-.14.51-.29.75-.46-.24.17-.5.33-.76.46h0Z"/>
            <path class="cls-3" d="M57.45,54.71h.01c.26-.14.51-.29.75-.46-.24.17-.5.33-.76.46h0Z"/>
            <path class="cls-3" d="M57.46,45.47c.38-.31.81-.55,1.28-.7h.04s0-.02,0-.02c0,0,0,0-.01-.01,0,0,0,0-.01-.01-.39-.11-.81-.17-1.25-.17-.49,0-.95.07-1.37.2.49.16.93.4,1.32.73,0,0,0,0,.01-.01Z"/>
            <path class="cls-3" d="M57.46,45.47c.38-.31.81-.55,1.28-.7h.04s0-.02,0-.02c0,0,0,0-.01-.01,0,0,0,0-.01-.01-.39-.11-.81-.17-1.25-.17-.49,0-.95.07-1.37.2.49.16.93.4,1.32.73,0,0,0,0,.01-.01Z"/>
            <path class="cls-3" d="M58.75,53.81s0,0,0,0c0,0,0,0,.01-.01,0,0,0,0,0,0h-.04c-.47-.17-.9-.41-1.28-.72,0,0-.01,0-.02-.01-.39.32-.83.57-1.33.73,0,0,0,0,0,0,.43.14.89.21,1.37.21.44,0,.87-.06,1.26-.18Z"/>
            <path class="cls-3" d="M54.76,44.56c.48,0,.94.07,1.36.2,0,0,.02-.02.03-.03.38-.36.82-.67,1.29-.9h0c-.41-.21-.86-.36-1.32-.47-.99.22-1.89.68-2.61,1.36.39-.11.8-.16,1.24-.16Z"/>
            <path class="cls-3" d="M56.15,44.73s-.02.02-.03.03c0,0,0,0,0,0,.42-.13.88-.2,1.37-.2.44,0,.86.06,1.25.17,0,0,0,0,0,0-.04-.04-.08-.07-.12-.11-.01-.01-.03-.03-.04-.04-.03-.02-.06-.05-.09-.07-.05-.04-.1-.08-.14-.12,0,0-.01-.01-.02-.02-.03-.03-.07-.05-.11-.08,0,0,0,0-.01-.01-.24-.17-.5-.33-.76-.46h0c-.47.24-.91.55-1.29.91Z"/>
            <path class="cls-3" d="M56.15,44.73s-.02.02-.03.03c0,0,0,0,0,0,.42-.13.88-.2,1.37-.2.44,0,.86.06,1.25.17,0,0,0,0,0,0-.04-.04-.08-.07-.12-.11-.01-.01-.03-.03-.04-.04-.03-.02-.06-.05-.09-.07-.05-.04-.1-.08-.14-.12,0,0-.01-.01-.02-.02-.03-.03-.07-.05-.11-.08,0,0,0,0-.01-.01-.24-.17-.5-.33-.76-.46h0c-.47.24-.91.55-1.29.91Z"/>
            <path class="cls-3" d="M58.74,44.72s-.08-.07-.12-.11c-.01-.01-.03-.03-.04-.04-.03-.02-.06-.05-.09-.07-.05-.04-.1-.08-.14-.12,0,0-.01-.01-.02-.02-.03-.03-.07-.05-.11-.08,0,0,0,0-.01-.01-.24-.17-.5-.33-.76-.46-.41-.2-.86-.36-1.32-.46-.99.22-1.89.68-2.61,1.36.39-.11.8-.16,1.24-.16.48,0,.94.07,1.36.2,0,0,0,0,0,0,.42-.13.88-.2,1.37-.2.44,0,.86.06,1.25.17,0,0,0,0,0,0Z"/>
            <path class="cls-3" d="M57.44,54.71c-.47-.24-.91-.54-1.29-.91,0,0-.02-.02-.03-.03,0,0,0,0,0,0-.42.14-.88.21-1.36.21-.44,0-.85-.06-1.24-.17.72.68,1.61,1.14,2.61,1.36.46-.1.91-.26,1.32-.46h0Z"/>
            <path class="cls-3" d="M57.5,53.98c-.49,0-.95-.07-1.37-.21,0,0,.02.02.03.03.38.36.82.67,1.29.91h0c.27-.13.52-.28.76-.45,0,0,0,0,.01,0,.09-.07.19-.14.28-.21.03-.02.06-.05.08-.07.02-.01.03-.03.05-.04.04-.03.08-.07.11-.1,0,0,0,0,.01,0-.39.11-.81.18-1.26.18Z"/>
            <path class="cls-3" d="M57.5,53.98c-.49,0-.95-.07-1.37-.21,0,0,.02.02.03.03.38.36.82.67,1.29.91h0c.27-.13.52-.28.76-.45,0,0,0,0,.01,0,.09-.07.19-.14.28-.21.03-.02.06-.05.08-.07.02-.01.03-.03.05-.04.04-.03.08-.07.11-.1,0,0,0,0,.01,0-.39.11-.81.18-1.26.18Z"/>
            <path class="cls-3" d="M57.5,53.98c-.49,0-.95-.07-1.37-.21,0,0,0,0,0,0-.42.14-.88.21-1.36.21-.44,0-.85-.06-1.24-.17.72.68,1.61,1.14,2.61,1.36.46-.1.91-.26,1.32-.46.27-.13.52-.29.76-.46,0,0,0,0,.01,0,.09-.07.19-.14.28-.21.03-.02.06-.05.08-.07.02-.01.03-.03.05-.04.04-.03.08-.07.11-.1,0,0,0,0,.01,0-.39.11-.81.18-1.26.18Z"/>
            <path class="cls-3" d="M58.5,54.03c-.09.07-.18.15-.28.21.09-.07.19-.14.28-.21Z"/>
            <path class="cls-3" d="M58.5,54.03c-.09.07-.18.15-.28.21.09-.07.19-.14.28-.21Z"/>
            <path class="cls-3" d="M58.5,54.03c-.09.07-.18.15-.28.21.09-.07.19-.14.28-.21Z"/>
          </g>
        </g>
      </g>
    </g>
  </g>
</svg>