<?xml version="1.0" encoding="UTF-8"?>
<svg id="Layer_1" xmlns="http://www.w3.org/2000/svg" xmlns:xlink="http://www.w3.org/1999/xlink" viewBox="0 0 98 98">
  <defs>
    <style>
      .cls-1 {
        fill: url(#linear-gradient-2);
      }

      .cls-2 {
        fill: #fff;
      }

      .cls-3 {
        fill: url(#linear-gradient-4);
      }

      .cls-4 {
        fill: url(#linear-gradient-3);
      }

      .cls-5 {
        fill: gray;
      }

      .cls-6 {
        fill: url(#linear-gradient);
      }
    </style>
    <linearGradient id="linear-gradient" x1="44.45" y1="36.31" x2="49.65" y2="36.31" gradientUnits="userSpaceOnUse">
      <stop offset="0" stop-color="#fff" stop-opacity=".35"/>
      <stop offset="1" stop-color="#fff" stop-opacity=".35"/>
    </linearGradient>
    <linearGradient id="linear-gradient-2" x1="46.19" y1="52.3" x2="51.41" y2="52.3" gradientUnits="userSpaceOnUse">
      <stop offset="0" stop-color="#fff" stop-opacity=".1"/>
      <stop offset="1" stop-color="#fff" stop-opacity=".1"/>
    </linearGradient>
    <linearGradient id="linear-gradient-3" x1="67.24" y1="-188.88" x2="67.24" y2="-211.01" gradientTransform="translate(-56.7 221.34) rotate(13.15)" gradientUnits="userSpaceOnUse">
      <stop offset="0" stop-color="#fff" stop-opacity="0"/>
      <stop offset=".95" stop-color="#fff"/>
    </linearGradient>
    <linearGradient id="linear-gradient-4" x1="-2086.61" y1="-28.41" x2="-2086.61" y2="-49.7" gradientTransform="translate(-1981.01 -465.84) rotate(-166.85)" gradientUnits="userSpaceOnUse">
      <stop offset="0" stop-color="#fff" stop-opacity="0"/>
      <stop offset=".94" stop-color="#fff"/>
    </linearGradient>
  </defs>
  <path class="cls-2" d="M49,93.26c-24.4,0-44.26-19.85-44.26-44.26S24.6,4.74,49,4.74s44.26,19.85,44.26,44.26-19.85,44.26-44.26,44.26ZM49,7.31C26.01,7.31,7.31,26.01,7.31,49s18.7,41.69,41.69,41.69,41.69-18.7,41.69-41.69S71.99,7.31,49,7.31Z"/>
  <g>
    <path class="cls-6" d="M44.45,29.97c.61-.52,1.25-.61,1.93-.61s3.01,1.21,3.15,3.8.13,10.1.13,10.1l-5.21-13.28Z"/>
    <path class="cls-1" d="M51.41,58.63c-.61.52-1.25.61-1.93.61s-3.01-1.21-3.15-3.8-.14-10.08-.14-10.08l5.22,13.26Z"/>
    <polygon class="cls-4" points="53.52 53.12 51.28 47.43 54.97 30.74 58.51 31.93 53.52 53.12"/>
    <polygon class="cls-3" points="42.52 36.05 44.81 41.85 41.49 57.67 37.98 56.04 42.52 36.05"/>
    <g>
      <path class="cls-2" d="M46.98,64.98c0-.09.02-.12.11-.12-.04,0,3.94,0,3.94,0,.72,0,1.39.19,1.91.74.21.23.34.5.35.82,0,.99,0,3.67,0,4.01,0,.07-.02.1-.1.1h-1.72c-.1,0-.09-.05-.09-.12,0-1.17,0-2.33,0-3.5,0-.39-.27-.68-.66-.69h-1.74c-.09,0-.08.05-.08.1,0,1.36,0,2.72,0,4.09,0,.09-.02.12-.12.12h-1.69c-.09,0-.11-.03-.11-.11,0-.91,0-4.53,0-5.44Z"/>
      <path class="cls-2" d="M37.35,70.53c-.67-.02-1.37.04-2.07-.11-1.68-.36-2.3-1.58-2.17-3.07.07-.79.37-1.47,1.05-1.93.52-.35,1.11-.51,1.73-.52,1.04-.03,2.07-.02,3.11-.02.06,0,.08.02.08.08,0,.4,0,.8,0,1.2,0,.09-.05.09-.11.09-.82,0-1.64,0-2.46,0-.59.01-1.09.24-1.31.82-.23.62-.19,1.23.28,1.74.23.24.53.37.86.37h2.62c.09,0,.12.03.12.13,0,.38,0,.76,0,1.14,0,.08-.02.1-.1.1h-1.63Z"/>
      <path class="cls-2" d="M63.08,70.41c0,.09-.03.12-.12.12h-1.7c-.08,0-.11-.02-.11-.11,0-2.41,0-4.83,0-7.24,0-.08.02-.11.11-.11h1.72c.08,0,.1.02.1.1,0,1.21,0,6.03,0,7.23Z"/>
      <path class="cls-2" d="M55.34,70.53c-.93,0-1.71-.74-1.72-1.6,0-1.05.73-1.86,1.72-1.87,1.03,0,2.05,0,3.08,0,.1,0,.13-.03.13-.13-.01-.41-.33-.73-.74-.73-1.18,0-2.36,0-3.54,0-.09,0-.11-.02-.11-.11,0-.38,0-.75,0-1.13,0-.07.01-.1.09-.1h3.87c.87.02,1.6.36,2.1,1.11.15.22.22.47.22.74,0,1.24,0,2.47,0,3.71,0,.09-.03.11-.11.11-.85,0-4.18,0-4.98,0ZM58.41,69.22c.07,0,.1-.01.1-.09,0-.23,0-.46,0-.69,0-.07-.02-.1-.09-.1-.77,0-1.55,0-2.32,0-.28,0-.4.15-.4.47,0,.3.09.4.39.41.38,0,1.93,0,2.32,0Z"/>
      <path class="cls-2" d="M41.2,70.53c-.97,0-1.73-.74-1.73-1.65,0-1.01.77-1.81,1.75-1.81h3.05c.1,0,.13-.03.12-.12,0-.42-.33-.73-.74-.73-1.18,0-2.36,0-3.54,0-.08,0-.11-.02-.11-.11v-1.14c0-.07.01-.1.1-.1h3.86c.88.02,1.62.37,2.12,1.13.14.22.21.46.21.72,0,1.24,0,2.47,0,3.71,0,.09-.02.11-.11.11-.86,0-4.17,0-4.97,0ZM43.07,69.22c.39,0,.78,0,1.18,0,.08,0,.11-.02.11-.11,0-.22,0-.44,0-.67,0-.08-.02-.1-.1-.1-.77,0-1.54,0-2.31,0-.29,0-.4.14-.4.46,0,.31.09.41.39.41.38,0,.76,0,1.14,0,0,0,0,0,0,0Z"/>
    </g>
    <polygon class="cls-5" points="40.94 32.03 40.94 32.02 44.75 30.73 44.75 30.74 44.75 30.74 44.75 30.75 40.94 32.03 40.94 32.03 40.94 32.03"/>
    <path class="cls-2" d="M62.93,32.33c0-3.11-1.05-5.01-4.07-5.01-2.71,0-3.69,2.75-3.86,3.32h0s0,0,0,0c-.02.06-.03.1-.03.1h0s-.07.31-.07.31l3.53,1.2.08-.31h0s0,0,0,0v-.06s.01,0,.01,0c.03-.14.09-.44.18-.44.12,0,.17.9.17.92h0s0,0,0,0h0s.04,23.52.04,23.52c0,2.3-.93,2.64-1.9,2.66-1.62.03-2.26-2.16-2.59-3.01h0s0-.02,0-.02l-9.67-24.76s-1.18-4.39-6.15-3.92c-5.2.49-5.31,5.29-5.31,5.52h0v25.67l.03.33.06.28s.2,3.48,3.71,3.48c3.03,0,4.05-3.31,4.05-3.31,0,0,.18-.48.3-.98h0s.03-.13.03-.13l.06-.28-3.51-1.57-.02.09s-.03.14-.03.14v.05c-.08.3-.42,1.8-.53,1.8s-.16-.44-.16-.44l.05-25.12s-.04-1.32,1.7-1.52c1.56-.18,1.9,1.21,1.9,1.21l10.14,25.76h0s.03.07.03.07c0,0,1.4,4.91,6.05,4.91,3.16,0,5.77-2.39,5.77-4.77v-25.65h0v-.02h0s0-.01,0-.01Z"/>
  </g>
</svg>