<?xml version="1.0" encoding="UTF-8"?>
<svg xmlns="http://www.w3.org/2000/svg" viewBox="0 0 151.83 151.32">
  <defs>
    <style>
      .cls-1 {
        fill: #003a5e;
      }

      .cls-2 {
        fill: #00aff3;
      }

      .cls-2, .cls-3 {
        mix-blend-mode: multiply;
      }

      .cls-4 {
        fill: #00953d;
      }

      .cls-5 {
        fill: none;
      }

      .cls-6 {
        isolation: isolate;
      }

      .cls-3 {
        fill: #ffd000;
      }

      .cls-7 {
        fill: #e24390;
      }
    </style>
  </defs>
  <g class="cls-6">
    <g id="Layer_1">
      <g>
        <path class="cls-1" d="M76.42,149.79C35.75,149.79,2.66,116.7,2.66,76.02S35.75,2.26,76.42,2.26s73.76,33.09,73.76,73.77-33.09,73.76-73.76,73.76ZM76.42,6.54C38.11,6.54,6.94,37.71,6.94,76.02s31.17,69.48,69.48,69.48,69.48-31.17,69.48-69.48S114.73,6.54,76.42,6.54Z"/>
        <g>
          <path class="cls-1" d="M30.65,74.23h.82c.33,0,.6-.05.82-.14.22-.09.4-.24.56-.44l5.18-6.59c.22-.28.44-.47.68-.58.24-.11.54-.16.9-.16h3.01l-6.32,7.85c-.2.24-.39.45-.57.61-.18.17-.38.3-.58.4.29.1.54.25.77.44.23.19.45.44.67.73l6.51,8.84h-3.09c-.42,0-.72-.06-.93-.18-.2-.12-.37-.29-.51-.52l-5.31-6.97c-.17-.23-.37-.39-.58-.49-.22-.1-.52-.15-.92-.15h-1.1v8.3h-3.49v-18.89h3.49v7.92Z"/>
          <path class="cls-1" d="M61.58,85.19h-2.7c-.3,0-.55-.08-.75-.23-.19-.15-.34-.34-.42-.57l-1.4-3.85h-7.77l-1.4,3.85c-.07.2-.21.38-.41.55-.2.17-.45.25-.75.25h-2.71l7.37-18.88h3.57l7.37,18.88ZM49.43,78.07h5.98l-2.28-6.28c-.1-.28-.22-.61-.34-.99-.13-.38-.25-.79-.37-1.23-.12.44-.24.86-.36,1.24-.12.38-.23.72-.34,1.01l-2.28,6.25Z"/>
          <path class="cls-1" d="M65.79,78.55v6.64h-3.49v-18.88h6.11c1.25,0,2.34.15,3.26.44.92.3,1.67.71,2.27,1.24.6.53,1.04,1.17,1.32,1.91.29.74.43,1.55.43,2.43s-.15,1.75-.45,2.51c-.3.76-.76,1.42-1.36,1.96-.61.55-1.36.97-2.27,1.28-.91.3-1.97.46-3.19.46h-2.62ZM65.79,75.81h2.62c.64,0,1.2-.08,1.67-.24.48-.16.87-.39,1.18-.69.31-.3.55-.67.7-1.1.16-.43.23-.91.23-1.44s-.08-.96-.23-1.37c-.16-.41-.39-.76-.7-1.04-.31-.29-.71-.51-1.18-.66-.48-.15-1.03-.23-1.67-.23h-2.62v6.77Z"/>
          <path class="cls-1" d="M98.83,66.32h2.93c.3,0,.56.07.76.22.2.14.34.34.41.58l3.19,11.29c.08.28.15.58.21.91s.13.67.19,1.04c.07-.37.14-.71.23-1.04.08-.33.17-.63.27-.91l3.69-11.29c.07-.2.21-.38.41-.55.2-.17.45-.25.75-.25h1.03c.3,0,.55.07.75.22s.34.34.42.58l3.66,11.29c.19.56.35,1.17.49,1.85.06-.34.12-.67.19-.98.06-.31.13-.6.2-.87l3.19-11.29c.06-.22.19-.4.4-.56s.46-.23.75-.23h2.74l-5.83,18.88h-3.15l-4.1-12.9c-.05-.17-.11-.34-.16-.54-.06-.19-.11-.4-.16-.61-.05.22-.11.42-.16.61-.06.19-.11.37-.16.54l-4.14,12.9h-3.15l-5.83-18.88Z"/>
          <g>
            <path class="cls-5" d="M85.3,76.02c0-2.99,1.06-5.66,2.99-7.51-1.12.36-2.1.99-2.89,1.89-1.24,1.41-1.92,3.4-1.92,5.63s.68,4.21,1.92,5.62c.79.9,1.77,1.54,2.89,1.9,0,0,0,0,0,0-1.93-1.85-2.99-4.52-2.99-7.51Z"/>
            <path class="cls-5" d="M92.68,68.47s.02.02.02.02h.01s0,.01,0,.01c.11.1.21.21.32.32,1.74,1.83,2.69,4.39,2.69,7.2s-.96,5.37-2.69,7.2c-.1.11-.21.21-.31.32h0s-.02.02-.02.02c0,0-.01.01-.02.02h-.01s0,.01,0,.01c3.04-.89,5.03-3.75,5.03-7.56,0-2.22-.69-4.21-1.95-5.63-.84-.95-1.89-1.6-3.1-1.95,0,0,0,0,.01,0h0Z"/>
            <path class="cls-5" d="M83.58,83.22c-1.73-1.83-2.68-4.39-2.68-7.2s.95-5.37,2.68-7.2c.12-.13.25-.26.38-.38-1.22.34-2.28,1-3.12,1.96-1.24,1.41-1.92,3.4-1.92,5.63s.68,4.21,1.92,5.62c.84.96,1.9,1.62,3.11,1.96-.13-.12-.26-.25-.38-.38Z"/>
            <path class="cls-5" d="M93.15,76.02c0-2.22-.69-4.21-1.95-5.63-.22-.25-.45-.47-.7-.68-1.69,1.42-2.62,3.66-2.62,6.31s.93,4.87,2.61,6.3c1.66-1.39,2.65-3.6,2.65-6.3Z"/>
            <path class="cls-7" d="M85.4,81.64c-1.24-1.41-1.92-3.4-1.92-5.62s.68-4.22,1.92-5.63c.79-.89,1.77-1.53,2.89-1.89,0,0,0,0,0,0-.71-.22-1.47-.34-2.27-.34-.73,0-1.42.09-2.06.27-.13.12-.26.25-.38.38-1.73,1.83-2.68,4.39-2.68,7.2s.95,5.37,2.68,7.2c.12.13.25.25.38.38.65.18,1.34.28,2.06.28.81,0,1.57-.12,2.27-.35-1.12-.36-2.1-1-2.89-1.9Z"/>
            <path class="cls-7" d="M97.6,68.82c-1.76-1.86-4.25-2.88-7.02-2.88-.78,0-1.55.08-2.28.24.77.17,1.51.43,2.2.77h0s.02,0,.02,0c.44.22.85.47,1.25.76,0,0,.02.01.02.02.06.04.12.09.18.13.01,0,.02.02.04.03.08.06.16.13.24.19.05.04.1.08.14.12.02.02.05.04.07.06.07.06.13.12.2.18,0,0,0,0,0,0,1.21.34,2.26,1,3.1,1.95,1.25,1.41,1.95,3.41,1.95,5.63,0,3.81-1.99,6.67-5.03,7.56,0,0-.01.01-.02.02-.06.06-.13.12-.19.17-.03.02-.05.05-.08.07-.05.04-.09.08-.14.12-.15.12-.3.24-.46.36,0,0-.01.01-.02.02-.39.28-.81.54-1.25.76h-.02s0,0,0,0c-.69.34-1.43.6-2.2.77.73.16,1.49.24,2.28.24,2.76,0,5.25-1.02,7.02-2.88,1.74-1.83,2.69-4.39,2.69-7.2s-.96-5.37-2.69-7.2Z"/>
            <polygon class="cls-2" points="88.29 83.53 88.29 83.53 88.29 83.53 88.29 83.53"/>
            <path class="cls-2" d="M80.84,81.64c-1.24-1.41-1.92-3.4-1.92-5.62s.68-4.22,1.92-5.63c.84-.95,1.9-1.61,3.12-1.96,1.2-1.12,2.69-1.89,4.34-2.26-.73-.16-1.49-.24-2.28-.24-2.76,0-5.25,1.02-7,2.88-1.73,1.83-2.68,4.39-2.68,7.2s.95,5.37,2.68,7.2c1.75,1.86,4.24,2.89,7,2.89.79,0,1.55-.08,2.28-.24-1.66-.37-3.15-1.14-4.35-2.26-1.22-.34-2.27-1.01-3.11-1.96Z"/>
            <path class="cls-2" d="M90.53,69.69s-.02.01-.02.02c.25.21.48.43.7.68,1.25,1.41,1.95,3.41,1.95,5.63,0,2.69-.99,4.91-2.65,6.3,0,0,.02.02.03.02.63.52,1.35.92,2.14,1.18l.06.02c.11-.1.21-.21.31-.32,1.74-1.83,2.69-4.39,2.69-7.2s-.96-5.37-2.69-7.2c-.1-.11-.21-.21-.32-.32l-.06.02c-.79.26-1.51.65-2.13,1.17Z"/>
            <path class="cls-3" d="M85.3,76.02c0,2.99,1.06,5.66,2.99,7.51.82-.27,1.57-.68,2.21-1.22-1.69-1.42-2.61-3.66-2.61-6.3s.93-4.89,2.62-6.31c-.65-.54-1.39-.95-2.2-1.21,0,0,0,0,0,0-1.93,1.85-2.99,4.52-2.99,7.51Z"/>
            <path class="cls-3" d="M92.72,68.5h-.01s0,0,.01,0h0Z"/>
            <path class="cls-3" d="M92.72,83.54h0s-.01.01-.02.02l.02-.02Z"/>
            <path class="cls-3" d="M92.69,83.57s0,0-.01.01c0,0,0,0,0,0h0s.01-.01.01-.01Z"/>
            <path class="cls-3" d="M92.68,68.47h0s0-.02-.01-.02c0,0,0,0,0,0,0,0,.01.01.02.02Z"/>
            <path class="cls-7" d="M90.52,66.95h-.02s0,0,0,0c.44.22.87.48,1.27.76-.39-.28-.81-.54-1.25-.76Z"/>
            <path class="cls-3" d="M90.52,66.95h-.02s0,0,0,0c.44.22.87.48,1.27.76-.39-.28-.81-.54-1.25-.76Z"/>
            <polygon class="cls-7" points="88.3 68.51 88.3 68.5 88.29 68.51 88.3 68.51"/>
            <polygon class="cls-3" points="88.3 68.51 88.3 68.5 88.29 68.51 88.3 68.51"/>
            <path class="cls-7" d="M92.66,83.6s.01-.01.02-.02c0,0,0,0,0,0,0,0-.01.01-.02.02Z"/>
            <path class="cls-3" d="M92.66,83.6s.01-.01.02-.02c0,0,0,0,0,0,0,0-.01.01-.02.02Z"/>
            <polygon class="cls-7" points="92.66 68.45 92.66 68.44 92.66 68.45 92.66 68.45"/>
            <polygon class="cls-3" points="92.66 68.45 92.66 68.44 92.66 68.45 92.66 68.45"/>
            <path class="cls-7" d="M90.51,85.1h.02c.44-.23.86-.48,1.25-.77-.4.29-.83.54-1.27.76h0Z"/>
            <path class="cls-3" d="M90.51,85.1h.02c.44-.23.86-.48,1.25-.77-.4.29-.83.54-1.27.76h0Z"/>
            <path class="cls-4" d="M90.53,69.69c.63-.52,1.34-.92,2.13-1.17l.06-.02s0,0-.01-.01c0,0-.02-.02-.02-.02,0,0-.01-.01-.02-.02-.65-.19-1.35-.28-2.08-.28-.81,0-1.58.12-2.28.34.82.26,1.56.66,2.2,1.21,0,0,.02-.01.02-.02Z"/>
            <path class="cls-3" d="M90.53,69.69c.63-.52,1.34-.92,2.13-1.17l.06-.02s0,0-.01-.01c0,0-.02-.02-.02-.02,0,0-.01-.01-.02-.02-.65-.19-1.35-.28-2.08-.28-.81,0-1.58.12-2.28.34.82.26,1.56.66,2.2,1.21,0,0,.02-.01.02-.02Z"/>
            <path class="cls-4" d="M92.68,83.58s0,0,.01-.01c0,0,.01-.01.02-.02,0,0,.01-.01.02-.02l-.06-.02c-.79-.26-1.51-.66-2.14-1.18,0,0-.02-.02-.03-.02-.64.54-1.39.95-2.21,1.22,0,0,0,0,0,0,.71.23,1.48.35,2.29.35.74,0,1.44-.1,2.1-.29Z"/>
            <path class="cls-7" d="M86.02,68.17c.81,0,1.57.11,2.27.34.01-.01.03-.03.04-.04.64-.6,1.36-1.11,2.15-1.51h.01c-.69-.35-1.43-.61-2.2-.78-1.66.37-3.14,1.14-4.34,2.26.64-.18,1.33-.27,2.06-.27Z"/>
            <path class="cls-7" d="M88.34,68.46s-.03.03-.04.04c0,0,0,0,0,0,.71-.22,1.47-.34,2.28-.34.73,0,1.43.1,2.08.28,0,0,0,0,0,0-.06-.06-.13-.12-.2-.18-.02-.02-.05-.04-.07-.06-.05-.04-.09-.08-.14-.12-.08-.07-.16-.13-.24-.19-.01,0-.02-.02-.04-.03-.06-.04-.12-.09-.18-.13,0,0-.02-.01-.02-.02-.4-.29-.83-.54-1.27-.76h-.01c-.79.4-1.51.91-2.15,1.51Z"/>
            <path class="cls-2" d="M88.34,68.46s-.03.03-.04.04c0,0,0,0,0,0,.71-.22,1.47-.34,2.28-.34.73,0,1.43.1,2.08.28,0,0,0,0,0,0-.06-.06-.13-.12-.2-.18-.02-.02-.05-.04-.07-.06-.05-.04-.09-.08-.14-.12-.08-.07-.16-.13-.24-.19-.01,0-.02-.02-.04-.03-.06-.04-.12-.09-.18-.13,0,0-.02-.01-.02-.02-.4-.29-.83-.54-1.27-.76h-.01c-.79.4-1.51.91-2.15,1.51Z"/>
            <path class="cls-2" d="M92.66,68.44c-.06-.06-.13-.12-.2-.18-.02-.02-.05-.04-.07-.06-.05-.04-.09-.08-.14-.12-.08-.07-.16-.13-.24-.19-.01,0-.02-.02-.04-.03-.06-.04-.12-.09-.18-.13,0,0-.02-.01-.02-.02-.4-.29-.83-.54-1.27-.76-.69-.34-1.43-.6-2.2-.77-1.66.37-3.14,1.14-4.34,2.26.64-.18,1.33-.27,2.06-.27.81,0,1.57.11,2.27.34,0,0,0,0,0,0,.71-.22,1.47-.34,2.28-.34.73,0,1.43.1,2.08.28,0,0,0,0,0,0Z"/>
            <path class="cls-7" d="M90.49,85.09c-.79-.4-1.51-.9-2.15-1.51-.02-.02-.03-.03-.05-.05,0,0,0,0,0,0-.7.23-1.46.35-2.27.35-.73,0-1.42-.09-2.06-.28,1.2,1.13,2.69,1.9,4.35,2.26.77-.17,1.51-.43,2.2-.77h-.01Z"/>
            <path class="cls-7" d="M90.58,83.88c-.81,0-1.58-.12-2.29-.35.02.02.03.03.05.05.64.6,1.36,1.11,2.15,1.51h.01c.45-.21.87-.47,1.27-.76,0,0,.01-.01.02-.02.16-.11.31-.23.46-.36.05-.04.09-.08.14-.12.03-.02.05-.05.08-.07.06-.06.13-.11.19-.17,0,0,.01-.01.02-.02-.65.19-1.35.29-2.1.29Z"/>
            <path class="cls-2" d="M90.58,83.88c-.81,0-1.58-.12-2.29-.35.02.02.03.03.05.05.64.6,1.36,1.11,2.15,1.51h.01c.45-.21.87-.47,1.27-.76,0,0,.01-.01.02-.02.16-.11.31-.23.46-.36.05-.04.09-.08.14-.12.03-.02.05-.05.08-.07.06-.06.13-.11.19-.17,0,0,.01-.01.02-.02-.65.19-1.35.29-2.1.29Z"/>
            <path class="cls-2" d="M90.58,83.88c-.81,0-1.58-.12-2.29-.35,0,0,0,0,0,0-.7.23-1.46.35-2.27.35-.73,0-1.42-.09-2.06-.28,1.2,1.13,2.69,1.9,4.35,2.26.77-.17,1.51-.43,2.2-.77.45-.22.87-.48,1.27-.76,0,0,.01-.01.02-.02.16-.11.31-.23.46-.36.05-.04.09-.08.14-.12.03-.02.05-.05.08-.07.06-.06.13-.11.19-.17,0,0,.01-.01.02-.02-.65.19-1.35.29-2.1.29Z"/>
            <path class="cls-7" d="M92.25,83.96c-.15.12-.3.24-.46.36.16-.11.31-.23.46-.36Z"/>
            <path class="cls-2" d="M92.25,83.96c-.15.12-.3.24-.46.36.16-.11.31-.23.46-.36Z"/>
            <path class="cls-2" d="M92.25,83.96c-.15.12-.3.24-.46.36.16-.11.31-.23.46-.36Z"/>
          </g>
        </g>
      </g>
    </g>
  </g>
</svg>