<?xml version="1.0" encoding="UTF-8"?>
<svg id="Layer_1" xmlns="http://www.w3.org/2000/svg" xmlns:xlink="http://www.w3.org/1999/xlink" viewBox="0 0 151.83 151.32">
  <defs>
    <style>
      .cls-1 {
        fill: url(#linear-gradient-2);
      }

      .cls-2 {
        fill: url(#linear-gradient-4);
      }

      .cls-3 {
        fill: url(#linear-gradient-3);
      }

      .cls-4 {
        fill: gray;
      }

      .cls-5 {
        fill: url(#linear-gradient);
      }
    </style>
    <linearGradient id="linear-gradient" x1="68.39" y1="54.42" x2="77.07" y2="54.42" gradientUnits="userSpaceOnUse">
      <stop offset="0" stop-color="gray" stop-opacity=".35"/>
      <stop offset="1" stop-color="gray" stop-opacity=".35"/>
    </linearGradient>
    <linearGradient id="linear-gradient-2" x1="71.29" y1="81.08" x2="79.99" y2="81.08" gradientUnits="userSpaceOnUse">
      <stop offset="0" stop-color="gray" stop-opacity=".1"/>
      <stop offset="1" stop-color="gray" stop-opacity=".1"/>
    </linearGradient>
    <linearGradient id="linear-gradient-3" x1="56.73" y1="-183.8" x2="56.73" y2="-220.68" gradientTransform="translate(-16.5 247.83) rotate(13.15)" gradientUnits="userSpaceOnUse">
      <stop offset="0" stop-color="gray" stop-opacity="0"/>
      <stop offset=".95" stop-color="gray"/>
    </linearGradient>
    <linearGradient id="linear-gradient-4" x1="-2258.55" y1="351.25" x2="-2258.55" y2="315.76" gradientTransform="translate(-2210.88 -117.01) rotate(-166.85)" gradientUnits="userSpaceOnUse">
      <stop offset="0" stop-color="gray" stop-opacity="0"/>
      <stop offset=".94" stop-color="gray"/>
    </linearGradient>
  </defs>
  <path class="cls-4" d="M75.98,149.33C35.31,149.33,2.21,116.24,2.21,75.57S35.31,1.8,75.98,1.8s73.77,33.09,73.77,73.77-33.09,73.76-73.77,73.76ZM75.98,6.08C37.67,6.08,6.5,37.25,6.5,75.57s31.17,69.48,69.48,69.48,69.48-31.17,69.48-69.48S114.29,6.08,75.98,6.08Z"/>
  <g>
    <path class="cls-5" d="M68.39,43.86c1.02-.87,2.09-1.02,3.21-1.02s5.02,2.02,5.25,6.33.22,16.83.22,16.83l-8.68-22.14Z"/>
    <path class="cls-1" d="M79.99,91.62c-1.02.87-2.09,1.02-3.21,1.02s-5.02-2.02-5.25-6.33-.23-16.79-.23-16.79l8.69,22.11Z"/>
    <polygon class="cls-3" points="83.5 82.45 79.78 72.96 85.92 45.13 91.83 47.12 83.5 82.45"/>
    <polygon class="cls-2" points="65.18 53.99 68.99 63.66 63.45 90.03 57.61 87.31 65.18 53.99"/>
    <g>
      <path class="cls-4" d="M72.61,102.2c0-.15.03-.19.19-.19-.06,0,6.57,0,6.57,0,1.21,0,2.32.31,3.18,1.24.36.39.57.84.58,1.36,0,1.66,0,6.11,0,6.69,0,.12-.04.16-.16.16h-2.87c-.17,0-.15-.09-.15-.2,0-1.95,0-3.89,0-5.84,0-.65-.45-1.14-1.1-1.15h-2.9c-.15,0-.14.08-.14.17,0,2.27,0,4.54,0,6.81,0,.16-.04.2-.2.2h-2.81c-.15,0-.18-.05-.18-.19,0-1.51,0-7.56,0-9.07Z"/>
      <path class="cls-4" d="M56.56,111.45c-1.11-.04-2.29.07-3.45-.18-2.81-.6-3.84-2.63-3.61-5.11.12-1.32.62-2.45,1.76-3.22.87-.59,1.86-.85,2.89-.87,1.73-.04,3.45-.03,5.18-.04.1,0,.13.04.13.13,0,.67,0,1.33,0,2,0,.15-.08.14-.18.14-1.37,0-2.73,0-4.1,0-.98.02-1.81.39-2.18,1.37-.39,1.03-.32,2.04.47,2.9.38.41.88.61,1.43.62h4.36c.15,0,.2.05.19.21,0,.63,0,1.26,0,1.89,0,.13-.04.17-.17.17h-2.72Z"/>
      <path class="cls-4" d="M99.45,111.26c0,.15-.04.2-.2.2h-2.83c-.14,0-.18-.04-.18-.18,0-4.02,0-8.05,0-12.07,0-.14.04-.18.18-.18h2.87c.14,0,.17.04.17.17,0,2.02,0,10.05,0,12.06Z"/>
      <path class="cls-4" d="M86.54,111.45c-1.55,0-2.86-1.23-2.86-2.66,0-1.75,1.22-3.1,2.86-3.12,1.71-.01,3.42,0,5.13,0,.17,0,.22-.05.21-.21-.02-.69-.54-1.21-1.23-1.21-1.97,0-3.94,0-5.91,0-.16,0-.19-.04-.19-.19,0-.63,0-1.25,0-1.88,0-.12.02-.17.16-.17h6.45c1.45.03,2.67.61,3.5,1.85.25.37.37.79.37,1.23,0,2.06,0,4.12,0,6.18,0,.16-.06.18-.19.18-1.42,0-6.96,0-8.31,0ZM91.65,109.27c.11,0,.17-.02.17-.15,0-.38,0-.76,0-1.14,0-.12-.04-.16-.16-.16-1.29,0-2.58,0-3.87,0-.47,0-.66.25-.66.78,0,.51.15.67.64.68.63,0,3.21,0,3.87,0Z"/>
      <path class="cls-4" d="M62.97,111.45c-1.61,0-2.89-1.23-2.89-2.75,0-1.68,1.29-3.02,2.91-3.02h5.09c.16,0,.21-.04.21-.2-.02-.7-.54-1.22-1.23-1.22-1.97,0-3.94,0-5.91,0-.14,0-.19-.03-.18-.18v-1.89c0-.12.02-.17.16-.17h6.43c1.47.03,2.7.61,3.54,1.88.24.36.35.77.35,1.2,0,2.06,0,4.12,0,6.18,0,.14-.03.18-.18.18-1.43,0-6.95,0-8.29,0ZM66.09,109.27c.65,0,1.31,0,1.96,0,.14,0,.18-.04.18-.18,0-.37,0-.74,0-1.11,0-.13-.03-.17-.16-.17-1.28,0-2.57,0-3.85,0-.48,0-.67.23-.67.77,0,.52.15.68.65.68.63,0,1.26,0,1.89,0,0,0,0,0,0,0Z"/>
    </g>
    <polygon class="cls-4" points="62.54 47.28 62.54 47.28 68.89 45.13 68.89 45.13 68.89 45.13 68.9 45.15 62.55 47.3 62.55 47.29 62.54 47.28"/>
    <path class="cls-4" d="M99.19,47.78c0-5.18-1.75-8.35-6.78-8.35-4.52,0-6.15,4.58-6.43,5.53h0s0,0,0,0c-.03.11-.05.17-.05.17h0s-.12.51-.12.51l5.89,1.99.13-.52h0s0,0,0-.01l.02-.11h0c.05-.23.16-.73.3-.73.19,0,.28,1.5.28,1.53h0s0,0,0,0v.02s.07,39.18.07,39.18c0,3.83-1.54,4.41-3.16,4.44-2.7.05-3.77-3.6-4.32-5.02h0s-.01-.03-.01-.03l-16.12-41.27s-1.97-7.32-10.25-6.54c-8.67.82-8.85,8.82-8.85,9.2h0v.02s0,0,0,.02v42.75l.05.55.1.46s.33,5.81,6.19,5.81c5.04,0,6.75-5.51,6.75-5.51,0,0,.29-.8.51-1.63h0s.06-.22.06-.22l.1-.46-5.85-2.62-.03.14s-.05.23-.05.23l-.02.09c-.11.5-.68,3-.86,3s-.27-.74-.27-.74l.08-41.86s-.07-2.2,2.83-2.54c2.6-.3,3.17,2.01,3.17,2.01l16.9,42.94h0s.05.12.05.12c0,0,2.34,8.18,10.08,8.18,5.26,0,9.61-3.98,9.61-7.95v-42.75h0v-.02h0v-.03h0Z"/>
  </g>
</svg>