<?xml version="1.0" encoding="UTF-8"?>
<svg id="Layer_1" xmlns="http://www.w3.org/2000/svg" viewBox="0 0 98 98">
  <defs>
    <style>
      .cls-1 {
        fill: #fff;
      }
    </style>
  </defs>
  <path class="cls-1" d="M49,93.26c-24.4,0-44.26-19.85-44.26-44.26S24.6,4.74,49,4.74s44.26,19.85,44.26,44.26-19.85,44.26-44.26,44.26ZM49,7.31C26.01,7.31,7.31,26.01,7.31,49s18.7,41.69,41.69,41.69,41.69-18.7,41.69-41.69S71.99,7.31,49,7.31Z"/>
  <g>
    <g>
      <path class="cls-1" d="M26.92,40.41h1.66v7.66h-1.66v-1.1c-.62.87-1.52,1.3-2.68,1.3-1.05,0-1.95-.39-2.7-1.17-.75-.78-1.12-1.73-1.12-2.86s.37-2.09,1.12-2.87c.75-.78,1.64-1.17,2.7-1.17,1.16,0,2.06.43,2.68,1.29v-1.09ZM22.77,45.99c.46.47,1.04.7,1.73.7s1.27-.23,1.73-.7.69-1.05.69-1.76-.23-1.29-.69-1.75c-.46-.47-1.04-.7-1.73-.7s-1.27.23-1.73.7c-.46.46-.69,1.05-.69,1.75s.23,1.29.69,1.76Z"/>
      <path class="cls-1" d="M38.88,40.21c.87,0,1.57.28,2.1.84s.8,1.32.8,2.27v4.75h-1.66v-4.64c0-.53-.13-.94-.4-1.23s-.63-.44-1.09-.44c-.51,0-.92.17-1.22.51-.3.34-.45.84-.45,1.52v4.29h-1.66v-4.64c0-.53-.13-.94-.38-1.23-.25-.29-.61-.44-1.07-.44-.5,0-.91.17-1.23.51-.32.34-.48.85-.48,1.51v4.29h-1.66v-7.66h1.66v.92c.49-.75,1.22-1.12,2.19-1.12s1.71.4,2.18,1.21c.51-.81,1.29-1.21,2.34-1.21Z"/>
      <path class="cls-1" d="M44.85,44.94c.12.58.4,1.03.84,1.34.44.31.98.47,1.61.47.88,0,1.54-.32,1.98-.95l1.36.8c-.76,1.11-1.87,1.67-3.36,1.67-1.25,0-2.25-.38-3.02-1.14-.77-.76-1.15-1.72-1.15-2.89s.38-2.1,1.13-2.87c.76-.77,1.73-1.16,2.91-1.16,1.12,0,2.05.39,2.77,1.18.72.79,1.08,1.74,1.08,2.87,0,.17-.02.4-.06.69h-6.1ZM44.84,43.6h4.51c-.11-.62-.37-1.09-.77-1.41-.4-.32-.88-.48-1.42-.48-.61,0-1.12.17-1.53.51s-.67.8-.78,1.38ZM49.22,37.3l-1.62,2.07h-1.59l1.23-2.07h1.99Z"/>
      <path class="cls-1" d="M54.13,41.7c.42-.95,1.21-1.43,2.36-1.43v1.79c-.63-.04-1.19.11-1.66.45-.47.34-.71.91-.71,1.69v3.86h-1.66v-7.66h1.66v1.29Z"/>
      <path class="cls-1" d="M59.28,38.94c-.21.21-.46.31-.74.31s-.53-.1-.74-.31c-.21-.21-.31-.46-.31-.74s.1-.53.31-.74c.2-.21.45-.31.75-.31s.55.11.75.31c.2.21.31.46.31.74s-.1.53-.31.74ZM57.71,48.07v-7.66h1.66v7.66h-1.66Z"/>
      <path class="cls-1" d="M64.9,48.27c-1.15,0-2.12-.39-2.89-1.17-.77-.78-1.16-1.73-1.16-2.87s.39-2.1,1.16-2.87c.77-.77,1.73-1.16,2.89-1.16.75,0,1.43.18,2.04.54.61.36,1.07.84,1.38,1.44l-1.43.83c-.17-.37-.44-.66-.79-.87-.35-.21-.76-.31-1.22-.31-.67,0-1.24.23-1.69.69-.45.46-.68,1.03-.68,1.72s.23,1.26.68,1.72c.45.46,1.02.69,1.69.69.45,0,.86-.11,1.22-.32.36-.21.64-.5.82-.86l1.43.81c-.33.61-.8,1.1-1.41,1.46-.61.36-1.29.54-2.04.54Z"/>
      <path class="cls-1" d="M75.49,40.41h1.66v7.66h-1.66v-1.1c-.62.87-1.52,1.3-2.68,1.3-1.05,0-1.95-.39-2.7-1.17-.75-.78-1.12-1.73-1.12-2.86s.37-2.09,1.12-2.87c.75-.78,1.64-1.17,2.7-1.17,1.16,0,2.06.43,2.68,1.29v-1.09ZM71.34,45.99c.46.47,1.04.7,1.73.7s1.27-.23,1.73-.7.69-1.05.69-1.76-.23-1.29-.69-1.75c-.46-.47-1.04-.7-1.73-.7s-1.27.23-1.73.7c-.46.46-.69,1.05-.69,1.75s.23,1.29.69,1.76Z"/>
      <path class="cls-1" d="M22.14,55.97c.12.58.4,1.02.84,1.33.44.31.97.46,1.6.46.87,0,1.52-.31,1.96-.94l1.35.79c-.75,1.1-1.86,1.66-3.33,1.66-1.24,0-2.23-.38-2.99-1.13-.76-.75-1.14-1.71-1.14-2.86s.37-2.08,1.12-2.85c.75-.76,1.71-1.15,2.89-1.15,1.11,0,2.03.39,2.74,1.17.71.78,1.07,1.73,1.07,2.84,0,.17-.02.4-.06.68h-6.05ZM22.12,54.64h4.47c-.11-.62-.37-1.08-.77-1.4-.4-.31-.87-.47-1.41-.47-.61,0-1.11.17-1.52.5-.41.33-.66.79-.77,1.37Z"/>
      <path class="cls-1" d="M30.75,53.56c0,.25.14.45.42.59s.62.28,1.01.4c.39.12.8.25,1.21.37.41.13.76.36,1.03.71.28.34.41.78.41,1.3,0,.73-.28,1.3-.84,1.72-.56.42-1.27.62-2.12.62-.75,0-1.39-.16-1.93-.47-.54-.31-.93-.75-1.17-1.31l1.41-.82c.26.73.83,1.09,1.69,1.09s1.29-.28,1.29-.85c0-.24-.14-.44-.42-.59-.28-.15-.61-.29-1.01-.41-.39-.12-.8-.25-1.21-.37s-.76-.35-1.04-.68c-.28-.33-.42-.75-.42-1.25,0-.7.27-1.26.8-1.69.53-.43,1.19-.64,1.98-.64.63,0,1.19.14,1.68.42.49.28.87.67,1.13,1.16l-1.38.77c-.26-.58-.74-.87-1.43-.87-.31,0-.58.07-.79.2-.21.14-.32.33-.32.59Z"/>
      <path class="cls-1" d="M40.11,53.06h-1.88v3.65c0,.31.07.54.21.68.14.14.35.21.63.23.28.02.63.01,1.04,0v1.47c-1.26.15-2.16.04-2.7-.33-.55-.37-.82-1.05-.82-2.04v-3.65h-1.4v-1.58h1.4v-1.64l1.64-.49v2.13h1.88v1.58Z"/>
      <path class="cls-1" d="M46.69,51.48h1.64v7.6h-1.64v-.97c-.5.78-1.28,1.17-2.35,1.17-.87,0-1.58-.28-2.11-.84-.54-.56-.81-1.32-.81-2.29v-4.66h1.64v4.5c0,.57.15,1,.46,1.31s.72.46,1.25.46c.58,0,1.04-.18,1.4-.54.35-.36.53-.91.53-1.65v-4.07Z"/>
      <path class="cls-1" d="M56.15,48.44h1.64v10.63h-1.64v-1.09c-.62.86-1.5,1.29-2.66,1.29-1.04,0-1.93-.39-2.67-1.16-.74-.77-1.11-1.72-1.11-2.83s.37-2.07,1.11-2.84,1.63-1.15,2.67-1.15c1.15,0,2.04.43,2.66,1.28v-4.12ZM52.04,57.01c.46.46,1.03.69,1.72.69s1.26-.23,1.72-.69c.46-.46.68-1.04.68-1.74s-.23-1.28-.68-1.74-1.03-.69-1.72-.69-1.26.23-1.72.69-.68,1.04-.68,1.74.23,1.28.68,1.74Z"/>
      <path class="cls-1" d="M61.16,50.03c-.21.21-.45.31-.74.31s-.53-.1-.74-.31c-.21-.21-.31-.45-.31-.74s.1-.53.3-.74c.2-.21.45-.31.74-.31s.54.1.74.31c.2.21.3.45.3.74s-.1.53-.31.74ZM59.6,59.07v-7.6h1.64v7.6h-1.64Z"/>
      <path class="cls-1" d="M66.62,59.27c-1.11,0-2.06-.38-2.84-1.15s-1.17-1.72-1.17-2.84.39-2.07,1.17-2.84,1.73-1.15,2.84-1.15,2.07.38,2.85,1.15,1.16,1.72,1.16,2.84-.39,2.07-1.16,2.84-1.72,1.15-2.85,1.15ZM64.94,56.99c.46.46,1.02.68,1.69.68s1.23-.23,1.69-.68c.46-.46.68-1.03.68-1.72s-.23-1.26-.68-1.72c-.46-.46-1.02-.68-1.69-.68s-1.23.23-1.69.68c-.46.46-.68,1.03-.68,1.72s.23,1.26.68,1.72Z"/>
      <path class="cls-1" d="M73.34,53.56c0,.25.14.45.42.59s.62.28,1.01.4c.39.12.8.25,1.21.37.41.13.76.36,1.03.71.28.34.41.78.41,1.3,0,.73-.28,1.3-.84,1.72-.56.42-1.27.62-2.12.62-.75,0-1.39-.16-1.93-.47-.54-.31-.93-.75-1.17-1.31l1.41-.82c.26.73.83,1.09,1.69,1.09s1.29-.28,1.29-.85c0-.24-.14-.44-.42-.59-.28-.15-.61-.29-1.01-.41-.39-.12-.8-.25-1.21-.37s-.76-.35-1.04-.68c-.28-.33-.42-.75-.42-1.25,0-.7.27-1.26.8-1.69.53-.43,1.19-.64,1.98-.64.63,0,1.19.14,1.68.42.49.28.87.67,1.13,1.16l-1.38.77c-.26-.58-.74-.87-1.43-.87-.31,0-.58.07-.79.2-.21.14-.32.33-.32.59Z"/>
    </g>
    <rect class="cls-1" x="20.63" y="49.04" width="7.91" height="1.42"/>
  </g>
</svg>